0
SECTION
2
HEADER
9
$INSUNITS
70
4
0
ENDSEC
0
SECTION
2
TABLES
0
TABLE
2
LTYPE
0
LTYPE
72
65
70
0
2
CONTINUOUS
3
______
73
0
40
0
0
LTYPE
72
65
70
0
2
DASHED
3
_ _ _ 
73
2
40
7.5
49
5
49
-2.5
0
LTYPE
72
65
70
0
2
DOTTED
3
. . . 
73
2
40
1.5
49
0.5
49
-1
0
ENDTAB
0
TABLE
2
LAYER
0
ENDTAB
0
ENDSEC
0
SECTION
2
ENTITIES
0
LINE
8
0
6
CONTINUOUS
10
57
20
0
11
76
21
0
0
LINE
8
0
6
CONTINUOUS
10
76
20
0
11
76
21
-19
0
LINE
8
0
6
CONTINUOUS
10
76
20
-19
11
57
21
-19
0
LINE
8
0
6
CONTINUOUS
10
57
20
-19
11
57
21
0
0
LINE
8
0
6
CONTINUOUS
10
275.5
20
0
11
294.5
21
0
0
LINE
8
0
6
CONTINUOUS
10
294.5
20
0
11
294.5
21
-19
0
LINE
8
0
6
CONTINUOUS
10
294.5
20
-19
11
275.5
21
-19
0
LINE
8
0
6
CONTINUOUS
10
275.5
20
-19
11
275.5
21
0
0
LINE
8
0
6
CONTINUOUS
10
38
20
-4.75
11
57
21
-4.75
0
LINE
8
0
6
CONTINUOUS
10
57
20
-4.75
11
57
21
-23.75
0
LINE
8
0
6
CONTINUOUS
10
57
20
-23.75
11
38
21
-23.75
0
LINE
8
0
6
CONTINUOUS
10
38
20
-23.75
11
38
21
-4.75
0
LINE
8
0
6
CONTINUOUS
10
76
20
-4.75
11
95
21
-4.75
0
LINE
8
0
6
CONTINUOUS
10
95
20
-4.75
11
95
21
-23.75
0
LINE
8
0
6
CONTINUOUS
10
95
20
-23.75
11
76
21
-23.75
0
LINE
8
0
6
CONTINUOUS
10
76
20
-23.75
11
76
21
-4.75
0
LINE
8
0
6
CONTINUOUS
10
256.5
20
-4.75
11
275.5
21
-4.75
0
LINE
8
0
6
CONTINUOUS
10
275.5
20
-4.75
11
275.5
21
-23.75
0
LINE
8
0
6
CONTINUOUS
10
275.5
20
-23.75
11
256.5
21
-23.75
0
LINE
8
0
6
CONTINUOUS
10
256.5
20
-23.75
11
256.5
21
-4.75
0
LINE
8
0
6
CONTINUOUS
10
294.5
20
-4.75
11
313.5
21
-4.75
0
LINE
8
0
6
CONTINUOUS
10
313.5
20
-4.75
11
313.5
21
-23.75
0
LINE
8
0
6
CONTINUOUS
10
313.5
20
-23.75
11
294.5
21
-23.75
0
LINE
8
0
6
CONTINUOUS
10
294.5
20
-23.75
11
294.5
21
-4.75
0
LINE
8
0
6
CONTINUOUS
10
0
20
-9.5
11
19
21
-9.5
0
LINE
8
0
6
CONTINUOUS
10
19
20
-9.5
11
19
21
-28.5
0
LINE
8
0
6
CONTINUOUS
10
19
20
-28.5
11
0
21
-28.5
0
LINE
8
0
6
CONTINUOUS
10
0
20
-28.5
11
0
21
-9.5
0
LINE
8
0
6
CONTINUOUS
10
19
20
-9.5
11
38
21
-9.5
0
LINE
8
0
6
CONTINUOUS
10
38
20
-9.5
11
38
21
-28.5
0
LINE
8
0
6
CONTINUOUS
10
38
20
-28.5
11
19
21
-28.5
0
LINE
8
0
6
CONTINUOUS
10
19
20
-28.5
11
19
21
-9.5
0
LINE
8
0
6
CONTINUOUS
10
95
20
-9.5
11
114
21
-9.5
0
LINE
8
0
6
CONTINUOUS
10
114
20
-9.5
11
114
21
-28.5
0
LINE
8
0
6
CONTINUOUS
10
114
20
-28.5
11
95
21
-28.5
0
LINE
8
0
6
CONTINUOUS
10
95
20
-28.5
11
95
21
-9.5
0
LINE
8
0
6
CONTINUOUS
10
237.5
20
-9.5
11
256.5
21
-9.5
0
LINE
8
0
6
CONTINUOUS
10
256.5
20
-9.5
11
256.5
21
-28.5
0
LINE
8
0
6
CONTINUOUS
10
256.5
20
-28.5
11
237.5
21
-28.5
0
LINE
8
0
6
CONTINUOUS
10
237.5
20
-28.5
11
237.5
21
-9.5
0
LINE
8
0
6
CONTINUOUS
10
313.5
20
-9.5
11
332.5
21
-9.5
0
LINE
8
0
6
CONTINUOUS
10
332.5
20
-9.5
11
332.5
21
-28.5
0
LINE
8
0
6
CONTINUOUS
10
332.5
20
-28.5
11
313.5
21
-28.5
0
LINE
8
0
6
CONTINUOUS
10
313.5
20
-28.5
11
313.5
21
-9.5
0
LINE
8
0
6
CONTINUOUS
10
332.5
20
-9.5
11
351.5
21
-9.5
0
LINE
8
0
6
CONTINUOUS
10
351.5
20
-9.5
11
351.5
21
-28.5
0
LINE
8
0
6
CONTINUOUS
10
351.5
20
-28.5
11
332.5
21
-28.5
0
LINE
8
0
6
CONTINUOUS
10
332.5
20
-28.5
11
332.5
21
-9.5
0
LINE
8
0
6
CONTINUOUS
10
57
20
-19
11
76
21
-19
0
LINE
8
0
6
CONTINUOUS
10
76
20
-19
11
76
21
-38
0
LINE
8
0
6
CONTINUOUS
10
76
20
-38
11
57
21
-38
0
LINE
8
0
6
CONTINUOUS
10
57
20
-38
11
57
21
-19
0
LINE
8
0
6
CONTINUOUS
10
275.5
20
-19
11
294.5
21
-19
0
LINE
8
0
6
CONTINUOUS
10
294.5
20
-19
11
294.5
21
-38
0
LINE
8
0
6
CONTINUOUS
10
294.5
20
-38
11
275.5
21
-38
0
LINE
8
0
6
CONTINUOUS
10
275.5
20
-38
11
275.5
21
-19
0
LINE
8
0
6
CONTINUOUS
10
38
20
-23.75
11
57
21
-23.75
0
LINE
8
0
6
CONTINUOUS
10
57
20
-23.75
11
57
21
-42.75
0
LINE
8
0
6
CONTINUOUS
10
57
20
-42.75
11
38
21
-42.75
0
LINE
8
0
6
CONTINUOUS
10
38
20
-42.75
11
38
21
-23.75
0
LINE
8
0
6
CONTINUOUS
10
76
20
-23.75
11
95
21
-23.75
0
LINE
8
0
6
CONTINUOUS
10
95
20
-23.75
11
95
21
-42.75
0
LINE
8
0
6
CONTINUOUS
10
95
20
-42.75
11
76
21
-42.75
0
LINE
8
0
6
CONTINUOUS
10
76
20
-42.75
11
76
21
-23.75
0
LINE
8
0
6
CONTINUOUS
10
256.5
20
-23.75
11
275.5
21
-23.75
0
LINE
8
0
6
CONTINUOUS
10
275.5
20
-23.75
11
275.5
21
-42.75
0
LINE
8
0
6
CONTINUOUS
10
275.5
20
-42.75
11
256.5
21
-42.75
0
LINE
8
0
6
CONTINUOUS
10
256.5
20
-42.75
11
256.5
21
-23.75
0
LINE
8
0
6
CONTINUOUS
10
294.5
20
-23.75
11
313.5
21
-23.75
0
LINE
8
0
6
CONTINUOUS
10
313.5
20
-23.75
11
313.5
21
-42.75
0
LINE
8
0
6
CONTINUOUS
10
313.5
20
-42.75
11
294.5
21
-42.75
0
LINE
8
0
6
CONTINUOUS
10
294.5
20
-42.75
11
294.5
21
-23.75
0
LINE
8
0
6
CONTINUOUS
10
-9.5
20
-28.5
11
19
21
-28.5
0
LINE
8
0
6
CONTINUOUS
10
19
20
-28.5
11
19
21
-47.5
0
LINE
8
0
6
CONTINUOUS
10
19
20
-47.5
11
-9.5
21
-47.5
0
LINE
8
0
6
CONTINUOUS
10
-9.5
20
-47.5
11
-9.5
21
-28.5
0
LINE
8
0
6
CONTINUOUS
10
19
20
-28.5
11
38
21
-28.5
0
LINE
8
0
6
CONTINUOUS
10
38
20
-28.5
11
38
21
-47.5
0
LINE
8
0
6
CONTINUOUS
10
38
20
-47.5
11
19
21
-47.5
0
LINE
8
0
6
CONTINUOUS
10
19
20
-47.5
11
19
21
-28.5
0
LINE
8
0
6
CONTINUOUS
10
95
20
-28.5
11
114
21
-28.5
0
LINE
8
0
6
CONTINUOUS
10
114
20
-28.5
11
114
21
-47.5
0
LINE
8
0
6
CONTINUOUS
10
114
20
-47.5
11
95
21
-47.5
0
LINE
8
0
6
CONTINUOUS
10
95
20
-47.5
11
95
21
-28.5
0
LINE
8
0
6
CONTINUOUS
10
114
20
-28.5
11
133
21
-28.5
0
LINE
8
0
6
CONTINUOUS
10
133
20
-28.5
11
133
21
-47.5
0
LINE
8
0
6
CONTINUOUS
10
133
20
-47.5
11
114
21
-47.5
0
LINE
8
0
6
CONTINUOUS
10
114
20
-47.5
11
114
21
-28.5
0
LINE
8
0
6
CONTINUOUS
10
218.5
20
-28.5
11
237.5
21
-28.5
0
LINE
8
0
6
CONTINUOUS
10
237.5
20
-28.5
11
237.5
21
-47.5
0
LINE
8
0
6
CONTINUOUS
10
237.5
20
-47.5
11
218.5
21
-47.5
0
LINE
8
0
6
CONTINUOUS
10
218.5
20
-47.5
11
218.5
21
-28.5
0
LINE
8
0
6
CONTINUOUS
10
237.5
20
-28.5
11
256.5
21
-28.5
0
LINE
8
0
6
CONTINUOUS
10
256.5
20
-28.5
11
256.5
21
-47.5
0
LINE
8
0
6
CONTINUOUS
10
256.5
20
-47.5
11
237.5
21
-47.5
0
LINE
8
0
6
CONTINUOUS
10
237.5
20
-47.5
11
237.5
21
-28.5
0
LINE
8
0
6
CONTINUOUS
10
313.5
20
-28.5
11
332.5
21
-28.5
0
LINE
8
0
6
CONTINUOUS
10
332.5
20
-28.5
11
332.5
21
-47.5
0
LINE
8
0
6
CONTINUOUS
10
332.5
20
-47.5
11
313.5
21
-47.5
0
LINE
8
0
6
CONTINUOUS
10
313.5
20
-47.5
11
313.5
21
-28.5
0
LINE
8
0
6
CONTINUOUS
10
332.5
20
-28.5
11
361
21
-28.5
0
LINE
8
0
6
CONTINUOUS
10
361
20
-28.5
11
361
21
-47.5
0
LINE
8
0
6
CONTINUOUS
10
361
20
-47.5
11
332.5
21
-47.5
0
LINE
8
0
6
CONTINUOUS
10
332.5
20
-47.5
11
332.5
21
-28.5
0
LINE
8
0
6
CONTINUOUS
10
57
20
-38
11
76
21
-38
0
LINE
8
0
6
CONTINUOUS
10
76
20
-38
11
76
21
-57
0
LINE
8
0
6
CONTINUOUS
10
76
20
-57
11
57
21
-57
0
LINE
8
0
6
CONTINUOUS
10
57
20
-57
11
57
21
-38
0
LINE
8
0
6
CONTINUOUS
10
275.5
20
-38
11
294.5
21
-38
0
LINE
8
0
6
CONTINUOUS
10
294.5
20
-38
11
294.5
21
-57
0
LINE
8
0
6
CONTINUOUS
10
294.5
20
-57
11
275.5
21
-57
0
LINE
8
0
6
CONTINUOUS
10
275.5
20
-57
11
275.5
21
-38
0
LINE
8
0
6
CONTINUOUS
10
38
20
-42.75
11
57
21
-42.75
0
LINE
8
0
6
CONTINUOUS
10
57
20
-42.75
11
57
21
-61.75
0
LINE
8
0
6
CONTINUOUS
10
57
20
-61.75
11
38
21
-61.75
0
LINE
8
0
6
CONTINUOUS
10
38
20
-61.75
11
38
21
-42.75
0
LINE
8
0
6
CONTINUOUS
10
76
20
-42.75
11
95
21
-42.75
0
LINE
8
0
6
CONTINUOUS
10
95
20
-42.75
11
95
21
-61.75
0
LINE
8
0
6
CONTINUOUS
10
95
20
-61.75
11
76
21
-61.75
0
LINE
8
0
6
CONTINUOUS
10
76
20
-61.75
11
76
21
-42.75
0
LINE
8
0
6
CONTINUOUS
10
256.5
20
-42.75
11
275.5
21
-42.75
0
LINE
8
0
6
CONTINUOUS
10
275.5
20
-42.75
11
275.5
21
-61.75
0
LINE
8
0
6
CONTINUOUS
10
275.5
20
-61.75
11
256.5
21
-61.75
0
LINE
8
0
6
CONTINUOUS
10
256.5
20
-61.75
11
256.5
21
-42.75
0
LINE
8
0
6
CONTINUOUS
10
294.5
20
-42.75
11
313.5
21
-42.75
0
LINE
8
0
6
CONTINUOUS
10
313.5
20
-42.75
11
313.5
21
-61.75
0
LINE
8
0
6
CONTINUOUS
10
313.5
20
-61.75
11
294.5
21
-61.75
0
LINE
8
0
6
CONTINUOUS
10
294.5
20
-61.75
11
294.5
21
-42.75
0
LINE
8
0
6
CONTINUOUS
10
-9.5
20
-47.5
11
19
21
-47.5
0
LINE
8
0
6
CONTINUOUS
10
19
20
-47.5
11
19
21
-66.5
0
LINE
8
0
6
CONTINUOUS
10
19
20
-66.5
11
-9.5
21
-66.5
0
LINE
8
0
6
CONTINUOUS
10
-9.5
20
-66.5
11
-9.5
21
-47.5
0
LINE
8
0
6
CONTINUOUS
10
19
20
-47.5
11
38
21
-47.5
0
LINE
8
0
6
CONTINUOUS
10
38
20
-47.5
11
38
21
-66.5
0
LINE
8
0
6
CONTINUOUS
10
38
20
-66.5
11
19
21
-66.5
0
LINE
8
0
6
CONTINUOUS
10
19
20
-66.5
11
19
21
-47.5
0
LINE
8
0
6
CONTINUOUS
10
95
20
-47.5
11
114
21
-47.5
0
LINE
8
0
6
CONTINUOUS
10
114
20
-47.5
11
114
21
-66.5
0
LINE
8
0
6
CONTINUOUS
10
114
20
-66.5
11
95
21
-66.5
0
LINE
8
0
6
CONTINUOUS
10
95
20
-66.5
11
95
21
-47.5
0
LINE
8
0
6
CONTINUOUS
10
114
20
-47.5
11
133
21
-47.5
0
LINE
8
0
6
CONTINUOUS
10
133
20
-47.5
11
133
21
-66.5
0
LINE
8
0
6
CONTINUOUS
10
133
20
-66.5
11
114
21
-66.5
0
LINE
8
0
6
CONTINUOUS
10
114
20
-66.5
11
114
21
-47.5
0
LINE
8
0
6
CONTINUOUS
10
218.5
20
-47.5
11
237.5
21
-47.5
0
LINE
8
0
6
CONTINUOUS
10
237.5
20
-47.5
11
237.5
21
-66.5
0
LINE
8
0
6
CONTINUOUS
10
237.5
20
-66.5
11
218.5
21
-66.5
0
LINE
8
0
6
CONTINUOUS
10
218.5
20
-66.5
11
218.5
21
-47.5
0
LINE
8
0
6
CONTINUOUS
10
237.5
20
-47.5
11
256.5
21
-47.5
0
LINE
8
0
6
CONTINUOUS
10
256.5
20
-47.5
11
256.5
21
-66.5
0
LINE
8
0
6
CONTINUOUS
10
256.5
20
-66.5
11
237.5
21
-66.5
0
LINE
8
0
6
CONTINUOUS
10
237.5
20
-66.5
11
237.5
21
-47.5
0
LINE
8
0
6
CONTINUOUS
10
313.5
20
-47.5
11
332.5
21
-47.5
0
LINE
8
0
6
CONTINUOUS
10
332.5
20
-47.5
11
332.5
21
-66.5
0
LINE
8
0
6
CONTINUOUS
10
332.5
20
-66.5
11
313.5
21
-66.5
0
LINE
8
0
6
CONTINUOUS
10
313.5
20
-66.5
11
313.5
21
-47.5
0
LINE
8
0
6
CONTINUOUS
10
332.5
20
-47.5
11
361
21
-47.5
0
LINE
8
0
6
CONTINUOUS
10
361
20
-47.5
11
361
21
-66.5
0
LINE
8
0
6
CONTINUOUS
10
361
20
-66.5
11
332.5
21
-66.5
0
LINE
8
0
6
CONTINUOUS
10
332.5
20
-66.5
11
332.5
21
-47.5
0
LINE
8
0
6
CONTINUOUS
10
57
20
-57
11
76
21
-57
0
LINE
8
0
6
CONTINUOUS
10
76
20
-57
11
76
21
-76
0
LINE
8
0
6
CONTINUOUS
10
76
20
-76
11
57
21
-76
0
LINE
8
0
6
CONTINUOUS
10
57
20
-76
11
57
21
-57
0
LINE
8
0
6
CONTINUOUS
10
275.5
20
-57
11
294.5
21
-57
0
LINE
8
0
6
CONTINUOUS
10
294.5
20
-57
11
294.5
21
-76
0
LINE
8
0
6
CONTINUOUS
10
294.5
20
-76
11
275.5
21
-76
0
LINE
8
0
6
CONTINUOUS
10
275.5
20
-76
11
275.5
21
-57
0
LINE
8
0
6
CONTINUOUS
10
38
20
-61.75
11
57
21
-61.75
0
LINE
8
0
6
CONTINUOUS
10
57
20
-61.75
11
57
21
-80.75
0
LINE
8
0
6
CONTINUOUS
10
57
20
-80.75
11
38
21
-80.75
0
LINE
8
0
6
CONTINUOUS
10
38
20
-80.75
11
38
21
-61.75
0
LINE
8
0
6
CONTINUOUS
10
76
20
-61.75
11
95
21
-61.75
0
LINE
8
0
6
CONTINUOUS
10
95
20
-61.75
11
95
21
-80.75
0
LINE
8
0
6
CONTINUOUS
10
95
20
-80.75
11
76
21
-80.75
0
LINE
8
0
6
CONTINUOUS
10
76
20
-80.75
11
76
21
-61.75
0
LINE
8
0
6
CONTINUOUS
10
256.5
20
-61.75
11
275.5
21
-61.75
0
LINE
8
0
6
CONTINUOUS
10
275.5
20
-61.75
11
275.5
21
-80.75
0
LINE
8
0
6
CONTINUOUS
10
275.5
20
-80.75
11
256.5
21
-80.75
0
LINE
8
0
6
CONTINUOUS
10
256.5
20
-80.75
11
256.5
21
-61.75
0
LINE
8
0
6
CONTINUOUS
10
294.5
20
-61.75
11
313.5
21
-61.75
0
LINE
8
0
6
CONTINUOUS
10
313.5
20
-61.75
11
313.5
21
-80.75
0
LINE
8
0
6
CONTINUOUS
10
313.5
20
-80.75
11
294.5
21
-80.75
0
LINE
8
0
6
CONTINUOUS
10
294.5
20
-80.75
11
294.5
21
-61.75
0
LINE
8
0
6
CONTINUOUS
10
-9.5
20
-66.5
11
19
21
-66.5
0
LINE
8
0
6
CONTINUOUS
10
19
20
-66.5
11
19
21
-85.5
0
LINE
8
0
6
CONTINUOUS
10
19
20
-85.5
11
-9.5
21
-85.5
0
LINE
8
0
6
CONTINUOUS
10
-9.5
20
-85.5
11
-9.5
21
-66.5
0
LINE
8
0
6
CONTINUOUS
10
19
20
-66.5
11
38
21
-66.5
0
LINE
8
0
6
CONTINUOUS
10
38
20
-66.5
11
38
21
-85.5
0
LINE
8
0
6
CONTINUOUS
10
38
20
-85.5
11
19
21
-85.5
0
LINE
8
0
6
CONTINUOUS
10
19
20
-85.5
11
19
21
-66.5
0
LINE
8
0
6
CONTINUOUS
10
95
20
-66.5
11
114
21
-66.5
0
LINE
8
0
6
CONTINUOUS
10
114
20
-66.5
11
114
21
-85.5
0
LINE
8
0
6
CONTINUOUS
10
114
20
-85.5
11
95
21
-85.5
0
LINE
8
0
6
CONTINUOUS
10
95
20
-85.5
11
95
21
-66.5
0
LINE
8
0
6
CONTINUOUS
10
114
20
-66.5
11
133
21
-66.5
0
LINE
8
0
6
CONTINUOUS
10
133
20
-66.5
11
133
21
-85.5
0
LINE
8
0
6
CONTINUOUS
10
133
20
-85.5
11
114
21
-85.5
0
LINE
8
0
6
CONTINUOUS
10
114
20
-85.5
11
114
21
-66.5
0
LINE
8
0
6
CONTINUOUS
10
218.5
20
-66.5
11
237.5
21
-66.5
0
LINE
8
0
6
CONTINUOUS
10
237.5
20
-66.5
11
237.5
21
-85.5
0
LINE
8
0
6
CONTINUOUS
10
237.5
20
-85.5
11
218.5
21
-85.5
0
LINE
8
0
6
CONTINUOUS
10
218.5
20
-85.5
11
218.5
21
-66.5
0
LINE
8
0
6
CONTINUOUS
10
237.5
20
-66.5
11
256.5
21
-66.5
0
LINE
8
0
6
CONTINUOUS
10
256.5
20
-66.5
11
256.5
21
-85.5
0
LINE
8
0
6
CONTINUOUS
10
256.5
20
-85.5
11
237.5
21
-85.5
0
LINE
8
0
6
CONTINUOUS
10
237.5
20
-85.5
11
237.5
21
-66.5
0
LINE
8
0
6
CONTINUOUS
10
313.5
20
-66.5
11
332.5
21
-66.5
0
LINE
8
0
6
CONTINUOUS
10
332.5
20
-66.5
11
332.5
21
-85.5
0
LINE
8
0
6
CONTINUOUS
10
332.5
20
-85.5
11
313.5
21
-85.5
0
LINE
8
0
6
CONTINUOUS
10
313.5
20
-85.5
11
313.5
21
-66.5
0
LINE
8
0
6
CONTINUOUS
10
332.5
20
-66.5
11
361
21
-66.5
0
LINE
8
0
6
CONTINUOUS
10
361
20
-66.5
11
361
21
-85.5
0
LINE
8
0
6
CONTINUOUS
10
361
20
-85.5
11
332.5
21
-85.5
0
LINE
8
0
6
CONTINUOUS
10
332.5
20
-85.5
11
332.5
21
-66.5
0
LINE
8
0
6
CONTINUOUS
10
57
20
-76
11
76
21
-76
0
LINE
8
0
6
CONTINUOUS
10
76
20
-76
11
76
21
-95
0
LINE
8
0
6
CONTINUOUS
10
76
20
-95
11
57
21
-95
0
LINE
8
0
6
CONTINUOUS
10
57
20
-95
11
57
21
-76
0
LINE
8
0
6
CONTINUOUS
10
275.5
20
-76
11
294.5
21
-76
0
LINE
8
0
6
CONTINUOUS
10
294.5
20
-76
11
294.5
21
-95
0
LINE
8
0
6
CONTINUOUS
10
294.5
20
-95
11
275.5
21
-95
0
LINE
8
0
6
CONTINUOUS
10
275.5
20
-95
11
275.5
21
-76
0
LINE
8
0
6
CONTINUOUS
10
38
20
-80.75
11
57
21
-80.75
0
LINE
8
0
6
CONTINUOUS
10
57
20
-80.75
11
57
21
-99.75
0
LINE
8
0
6
CONTINUOUS
10
57
20
-99.75
11
38
21
-99.75
0
LINE
8
0
6
CONTINUOUS
10
38
20
-99.75
11
38
21
-80.75
0
LINE
8
0
6
CONTINUOUS
10
76
20
-80.75
11
95
21
-80.75
0
LINE
8
0
6
CONTINUOUS
10
95
20
-80.75
11
95
21
-99.75
0
LINE
8
0
6
CONTINUOUS
10
95
20
-99.75
11
76
21
-99.75
0
LINE
8
0
6
CONTINUOUS
10
76
20
-99.75
11
76
21
-80.75
0
LINE
8
0
6
CONTINUOUS
10
256.5
20
-80.75
11
275.5
21
-80.75
0
LINE
8
0
6
CONTINUOUS
10
275.5
20
-80.75
11
275.5
21
-99.75
0
LINE
8
0
6
CONTINUOUS
10
275.5
20
-99.75
11
256.5
21
-99.75
0
LINE
8
0
6
CONTINUOUS
10
256.5
20
-99.75
11
256.5
21
-80.75
0
LINE
8
0
6
CONTINUOUS
10
294.5
20
-80.75
11
313.5
21
-80.75
0
LINE
8
0
6
CONTINUOUS
10
313.5
20
-80.75
11
313.5
21
-99.75
0
LINE
8
0
6
CONTINUOUS
10
313.5
20
-99.75
11
294.5
21
-99.75
0
LINE
8
0
6
CONTINUOUS
10
294.5
20
-99.75
11
294.5
21
-80.75
0
LINE
8
0
6
CONTINUOUS
10
-9.5
20
-85.5
11
19
21
-85.5
0
LINE
8
0
6
CONTINUOUS
10
19
20
-85.5
11
19
21
-104.5
0
LINE
8
0
6
CONTINUOUS
10
19
20
-104.5
11
-9.5
21
-104.5
0
LINE
8
0
6
CONTINUOUS
10
-9.5
20
-104.5
11
-9.5
21
-85.5
0
LINE
8
0
6
CONTINUOUS
10
19
20
-85.5
11
38
21
-85.5
0
LINE
8
0
6
CONTINUOUS
10
38
20
-85.5
11
38
21
-104.5
0
LINE
8
0
6
CONTINUOUS
10
38
20
-104.5
11
19
21
-104.5
0
LINE
8
0
6
CONTINUOUS
10
19
20
-104.5
11
19
21
-85.5
0
LINE
8
0
6
CONTINUOUS
10
95
20
-85.5
11
114
21
-85.5
0
LINE
8
0
6
CONTINUOUS
10
114
20
-85.5
11
114
21
-104.5
0
LINE
8
0
6
CONTINUOUS
10
114
20
-104.5
11
95
21
-104.5
0
LINE
8
0
6
CONTINUOUS
10
95
20
-104.5
11
95
21
-85.5
0
LINE
8
0
6
CONTINUOUS
10
114
20
-85.5
11
133
21
-85.5
0
LINE
8
0
6
CONTINUOUS
10
133
20
-85.5
11
133
21
-104.5
0
LINE
8
0
6
CONTINUOUS
10
133
20
-104.5
11
114
21
-104.5
0
LINE
8
0
6
CONTINUOUS
10
114
20
-104.5
11
114
21
-85.5
0
LINE
8
0
6
CONTINUOUS
10
218.5
20
-85.5
11
237.5
21
-85.5
0
LINE
8
0
6
CONTINUOUS
10
237.5
20
-85.5
11
237.5
21
-104.5
0
LINE
8
0
6
CONTINUOUS
10
237.5
20
-104.5
11
218.5
21
-104.5
0
LINE
8
0
6
CONTINUOUS
10
218.5
20
-104.5
11
218.5
21
-85.5
0
LINE
8
0
6
CONTINUOUS
10
237.5
20
-85.5
11
256.5
21
-85.5
0
LINE
8
0
6
CONTINUOUS
10
256.5
20
-85.5
11
256.5
21
-104.5
0
LINE
8
0
6
CONTINUOUS
10
256.5
20
-104.5
11
237.5
21
-104.5
0
LINE
8
0
6
CONTINUOUS
10
237.5
20
-104.5
11
237.5
21
-85.5
0
LINE
8
0
6
CONTINUOUS
10
313.5
20
-85.5
11
332.5
21
-85.5
0
LINE
8
0
6
CONTINUOUS
10
332.5
20
-85.5
11
332.5
21
-104.5
0
LINE
8
0
6
CONTINUOUS
10
332.5
20
-104.5
11
313.5
21
-104.5
0
LINE
8
0
6
CONTINUOUS
10
313.5
20
-104.5
11
313.5
21
-85.5
0
LINE
8
0
6
CONTINUOUS
10
332.5
20
-85.5
11
361
21
-85.5
0
LINE
8
0
6
CONTINUOUS
10
361
20
-85.5
11
361
21
-104.5
0
LINE
8
0
6
CONTINUOUS
10
361
20
-104.5
11
332.5
21
-104.5
0
LINE
8
0
6
CONTINUOUS
10
332.5
20
-104.5
11
332.5
21
-85.5
0
LINE
8
0
6
CONTINUOUS
10
275.5
20
-95
11
294.5
21
-95
0
LINE
8
0
6
CONTINUOUS
10
294.5
20
-95
11
294.5
21
-114
0
LINE
8
0
6
CONTINUOUS
10
294.5
20
-114
11
275.5
21
-114
0
LINE
8
0
6
CONTINUOUS
10
275.5
20
-114
11
275.5
21
-95
0
LINE
8
0
6
CONTINUOUS
10
256.5
20
-99.75
11
275.5
21
-99.75
0
LINE
8
0
6
CONTINUOUS
10
275.5
20
-99.75
11
275.5
21
-118.75
0
LINE
8
0
6
CONTINUOUS
10
275.5
20
-118.75
11
256.5
21
-118.75
0
LINE
8
0
6
CONTINUOUS
10
256.5
20
-118.75
11
256.5
21
-99.75
0
LINE
8
0
6
CONTINUOUS
10
294.5
20
-99.75
11
313.5
21
-99.75
0
LINE
8
0
6
CONTINUOUS
10
313.5
20
-99.75
11
313.5
21
-118.75
0
LINE
8
0
6
CONTINUOUS
10
313.5
20
-118.75
11
294.5
21
-118.75
0
LINE
8
0
6
CONTINUOUS
10
294.5
20
-118.75
11
294.5
21
-99.75
0
LINE
8
0
6
CONTINUOUS
10
313.5
20
-104.5
11
332.5
21
-104.5
0
LINE
8
0
6
CONTINUOUS
10
332.5
20
-104.5
11
332.5
21
-123.5
0
LINE
8
0
6
CONTINUOUS
10
332.5
20
-123.5
11
313.5
21
-123.5
0
LINE
8
0
6
CONTINUOUS
10
313.5
20
-123.5
11
313.5
21
-104.5
0
LINE
8
0
6
CONTINUOUS
10
137.4089653
20
-106.7044827
11
170.3179307
21
-125.7044827
0
LINE
8
0
6
CONTINUOUS
10
170.3179307
20
-125.7044827
11
160.8179307
21
-142.1589653
0
LINE
8
0
6
CONTINUOUS
10
160.8179307
20
-142.1589653
11
127.9089653
21
-123.1589653
0
LINE
8
0
6
CONTINUOUS
10
127.9089653
20
-123.1589653
11
137.4089653
21
-106.7044827
0
LINE
8
0
6
CONTINUOUS
10
111.4544827
20
-113.6589653
11
127.9089653
21
-123.1589653
0
LINE
8
0
6
CONTINUOUS
10
127.9089653
20
-123.1589653
11
108.9089653
21
-156.0679307
0
LINE
8
0
6
CONTINUOUS
10
108.9089653
20
-156.0679307
11
92.4544827
21
-146.5679307
0
LINE
8
0
6
CONTINUOUS
10
92.4544827
20
-146.5679307
11
111.4544827
21
-113.6589653
0
LINE
8
0
6
CONTINUOUS
10
127.9089654
20
-123.1589653
11
144.363448
21
-132.6589653
0
LINE
8
0
6
CONTINUOUS
10
144.363448
20
-132.6589653
11
125.363448
21
-165.5679307
0
LINE
8
0
6
CONTINUOUS
10
125.363448
20
-165.5679307
11
108.9089654
21
-156.0679307
0
LINE
8
0
6
CONTINUOUS
10
108.9089654
20
-156.0679307
11
127.9089654
21
-123.1589653
0
LINE
8
0
6
CONTINUOUS
10
144.3634481
20
-132.6589653
11
160.8179307
21
-142.1589653
0
LINE
8
0
6
CONTINUOUS
10
160.8179307
20
-142.1589653
11
141.8179307
21
-175.0679307
0
LINE
8
0
6
CONTINUOUS
10
141.8179307
20
-175.0679307
11
125.3634481
21
-165.5679307
0
LINE
8
0
6
CONTINUOUS
10
125.3634481
20
-165.5679307
11
144.3634481
21
-132.6589653
0
LINE
8
0
6
CONTINUOUS
10
181.1820693
20
-125.7044827
11
214.0910347
21
-106.7044827
0
LINE
8
0
6
CONTINUOUS
10
214.0910347
20
-106.7044827
11
223.5910347
21
-123.1589653
0
LINE
8
0
6
CONTINUOUS
10
223.5910347
20
-123.1589653
11
190.6820693
21
-142.1589653
0
LINE
8
0
6
CONTINUOUS
10
190.6820693
20
-142.1589653
11
181.1820693
21
-125.7044827
0
LINE
8
0
6
CONTINUOUS
10
190.6820693
20
-142.1589653
11
207.1365519
21
-132.6589653
0
LINE
8
0
6
CONTINUOUS
10
207.1365519
20
-132.6589653
11
226.1365519
21
-165.5679307
0
LINE
8
0
6
CONTINUOUS
10
226.1365519
20
-165.5679307
11
209.6820693
21
-175.0679307
0
LINE
8
0
6
CONTINUOUS
10
209.6820693
20
-175.0679307
11
190.6820693
21
-142.1589653
0
LINE
8
0
6
CONTINUOUS
10
207.136552
20
-132.6589653
11
223.5910346
21
-123.1589653
0
LINE
8
0
6
CONTINUOUS
10
223.5910346
20
-123.1589653
11
242.5910346
21
-156.0679307
0
LINE
8
0
6
CONTINUOUS
10
242.5910346
20
-156.0679307
11
226.136552
21
-165.5679307
0
LINE
8
0
6
CONTINUOUS
10
226.136552
20
-165.5679307
11
207.136552
21
-132.6589653
0
LINE
8
0
6
CONTINUOUS
10
223.5910347
20
-123.1589653
11
240.0455173
21
-113.6589653
0
LINE
8
0
6
CONTINUOUS
10
240.0455173
20
-113.6589653
11
259.0455173
21
-146.5679307
0
LINE
8
0
6
CONTINUOUS
10
259.0455173
20
-146.5679307
11
242.5910347
21
-156.0679307
0
LINE
8
0
6
CONTINUOUS
10
242.5910347
20
-156.0679307
11
223.5910347
21
-123.1589653
0
ENDSEC
0
EOF