0
SECTION
2
HEADER
9
$INSUNITS
70
4
0
ENDSEC
0
SECTION
2
TABLES
0
TABLE
2
LTYPE
0
LTYPE
72
65
70
0
2
CONTINUOUS
3
______
73
0
40
0
0
LTYPE
72
65
70
0
2
DASHED
3
_ _ _ 
73
2
40
7.5
49
5
49
-2.5
0
LTYPE
72
65
70
0
2
DOTTED
3
. . . 
73
2
40
1.5
49
0.5
49
-1
0
ENDTAB
0
TABLE
2
LAYER
0
ENDTAB
0
ENDSEC
0
SECTION
2
ENTITIES
0
LINE
8
0
6
CONTINUOUS
10
19
20
9.5
11
38
21
9.5
0
LINE
8
0
6
CONTINUOUS
10
38
20
9.5
11
38
21
-9.5
0
LINE
8
0
6
CONTINUOUS
10
38
20
-9.5
11
19
21
-9.5
0
LINE
8
0
6
CONTINUOUS
10
19
20
-9.5
11
19
21
9.5
0
LINE
8
0
6
CONTINUOUS
10
38
20
9.5
11
57
21
9.5
0
LINE
8
0
6
CONTINUOUS
10
57
20
9.5
11
57
21
-9.5
0
LINE
8
0
6
CONTINUOUS
10
57
20
-9.5
11
38
21
-9.5
0
LINE
8
0
6
CONTINUOUS
10
38
20
-9.5
11
38
21
9.5
0
LINE
8
0
6
CONTINUOUS
10
57
20
9.5
11
76
21
9.5
0
LINE
8
0
6
CONTINUOUS
10
76
20
9.5
11
76
21
-9.5
0
LINE
8
0
6
CONTINUOUS
10
76
20
-9.5
11
57
21
-9.5
0
LINE
8
0
6
CONTINUOUS
10
57
20
-9.5
11
57
21
9.5
0
LINE
8
0
6
CONTINUOUS
10
76
20
9.5
11
95
21
9.5
0
LINE
8
0
6
CONTINUOUS
10
95
20
9.5
11
95
21
-9.5
0
LINE
8
0
6
CONTINUOUS
10
95
20
-9.5
11
76
21
-9.5
0
LINE
8
0
6
CONTINUOUS
10
76
20
-9.5
11
76
21
9.5
0
LINE
8
0
6
CONTINUOUS
10
95
20
9.5
11
114
21
9.5
0
LINE
8
0
6
CONTINUOUS
10
114
20
9.5
11
114
21
-9.5
0
LINE
8
0
6
CONTINUOUS
10
114
20
-9.5
11
95
21
-9.5
0
LINE
8
0
6
CONTINUOUS
10
95
20
-9.5
11
95
21
9.5
0
LINE
8
0
6
CONTINUOUS
10
114
20
9.5
11
133
21
9.5
0
LINE
8
0
6
CONTINUOUS
10
133
20
9.5
11
133
21
-9.5
0
LINE
8
0
6
CONTINUOUS
10
133
20
-9.5
11
114
21
-9.5
0
LINE
8
0
6
CONTINUOUS
10
114
20
-9.5
11
114
21
9.5
0
LINE
8
0
6
CONTINUOUS
10
218.5
20
9.5
11
237.5
21
9.5
0
LINE
8
0
6
CONTINUOUS
10
237.5
20
9.5
11
237.5
21
-9.5
0
LINE
8
0
6
CONTINUOUS
10
237.5
20
-9.5
11
218.5
21
-9.5
0
LINE
8
0
6
CONTINUOUS
10
218.5
20
-9.5
11
218.5
21
9.5
0
LINE
8
0
6
CONTINUOUS
10
237.5
20
9.5
11
256.5
21
9.5
0
LINE
8
0
6
CONTINUOUS
10
256.5
20
9.5
11
256.5
21
-9.5
0
LINE
8
0
6
CONTINUOUS
10
256.5
20
-9.5
11
237.5
21
-9.5
0
LINE
8
0
6
CONTINUOUS
10
237.5
20
-9.5
11
237.5
21
9.5
0
LINE
8
0
6
CONTINUOUS
10
256.5
20
9.5
11
275.5
21
9.5
0
LINE
8
0
6
CONTINUOUS
10
275.5
20
9.5
11
275.5
21
-9.5
0
LINE
8
0
6
CONTINUOUS
10
275.5
20
-9.5
11
256.5
21
-9.5
0
LINE
8
0
6
CONTINUOUS
10
256.5
20
-9.5
11
256.5
21
9.5
0
LINE
8
0
6
CONTINUOUS
10
275.5
20
9.5
11
294.5
21
9.5
0
LINE
8
0
6
CONTINUOUS
10
294.5
20
9.5
11
294.5
21
-9.5
0
LINE
8
0
6
CONTINUOUS
10
294.5
20
-9.5
11
275.5
21
-9.5
0
LINE
8
0
6
CONTINUOUS
10
275.5
20
-9.5
11
275.5
21
9.5
0
LINE
8
0
6
CONTINUOUS
10
294.5
20
9.5
11
313.5
21
9.5
0
LINE
8
0
6
CONTINUOUS
10
313.5
20
9.5
11
313.5
21
-9.5
0
LINE
8
0
6
CONTINUOUS
10
313.5
20
-9.5
11
294.5
21
-9.5
0
LINE
8
0
6
CONTINUOUS
10
294.5
20
-9.5
11
294.5
21
9.5
0
LINE
8
0
6
CONTINUOUS
10
313.5
20
9.5
11
332.5
21
9.5
0
LINE
8
0
6
CONTINUOUS
10
332.5
20
9.5
11
332.5
21
-9.5
0
LINE
8
0
6
CONTINUOUS
10
332.5
20
-9.5
11
313.5
21
-9.5
0
LINE
8
0
6
CONTINUOUS
10
313.5
20
-9.5
11
313.5
21
9.5
0
LINE
8
0
6
CONTINUOUS
10
-9.5
20
-9.5
11
19
21
-9.5
0
LINE
8
0
6
CONTINUOUS
10
19
20
-9.5
11
19
21
-28.5
0
LINE
8
0
6
CONTINUOUS
10
19
20
-28.5
11
-9.5
21
-28.5
0
LINE
8
0
6
CONTINUOUS
10
-9.5
20
-28.5
11
-9.5
21
-9.5
0
LINE
8
0
6
CONTINUOUS
10
19
20
-9.5
11
38
21
-9.5
0
LINE
8
0
6
CONTINUOUS
10
38
20
-9.5
11
38
21
-28.5
0
LINE
8
0
6
CONTINUOUS
10
38
20
-28.5
11
19
21
-28.5
0
LINE
8
0
6
CONTINUOUS
10
19
20
-28.5
11
19
21
-9.5
0
LINE
8
0
6
CONTINUOUS
10
38
20
-9.5
11
57
21
-9.5
0
LINE
8
0
6
CONTINUOUS
10
57
20
-9.5
11
57
21
-28.5
0
LINE
8
0
6
CONTINUOUS
10
57
20
-28.5
11
38
21
-28.5
0
LINE
8
0
6
CONTINUOUS
10
38
20
-28.5
11
38
21
-9.5
0
LINE
8
0
6
CONTINUOUS
10
57
20
-9.5
11
76
21
-9.5
0
LINE
8
0
6
CONTINUOUS
10
76
20
-9.5
11
76
21
-28.5
0
LINE
8
0
6
CONTINUOUS
10
76
20
-28.5
11
57
21
-28.5
0
LINE
8
0
6
CONTINUOUS
10
57
20
-28.5
11
57
21
-9.5
0
LINE
8
0
6
CONTINUOUS
10
76
20
-9.5
11
95
21
-9.5
0
LINE
8
0
6
CONTINUOUS
10
95
20
-9.5
11
95
21
-28.5
0
LINE
8
0
6
CONTINUOUS
10
95
20
-28.5
11
76
21
-28.5
0
LINE
8
0
6
CONTINUOUS
10
76
20
-28.5
11
76
21
-9.5
0
LINE
8
0
6
CONTINUOUS
10
95
20
-9.5
11
114
21
-9.5
0
LINE
8
0
6
CONTINUOUS
10
114
20
-9.5
11
114
21
-28.5
0
LINE
8
0
6
CONTINUOUS
10
114
20
-28.5
11
95
21
-28.5
0
LINE
8
0
6
CONTINUOUS
10
95
20
-28.5
11
95
21
-9.5
0
LINE
8
0
6
CONTINUOUS
10
114
20
-9.5
11
133
21
-9.5
0
LINE
8
0
6
CONTINUOUS
10
133
20
-9.5
11
133
21
-28.5
0
LINE
8
0
6
CONTINUOUS
10
133
20
-28.5
11
114
21
-28.5
0
LINE
8
0
6
CONTINUOUS
10
114
20
-28.5
11
114
21
-9.5
0
LINE
8
0
6
CONTINUOUS
10
218.5
20
-9.5
11
237.5
21
-9.5
0
LINE
8
0
6
CONTINUOUS
10
237.5
20
-9.5
11
237.5
21
-28.5
0
LINE
8
0
6
CONTINUOUS
10
237.5
20
-28.5
11
218.5
21
-28.5
0
LINE
8
0
6
CONTINUOUS
10
218.5
20
-28.5
11
218.5
21
-9.5
0
LINE
8
0
6
CONTINUOUS
10
237.5
20
-9.5
11
256.5
21
-9.5
0
LINE
8
0
6
CONTINUOUS
10
256.5
20
-9.5
11
256.5
21
-28.5
0
LINE
8
0
6
CONTINUOUS
10
256.5
20
-28.5
11
237.5
21
-28.5
0
LINE
8
0
6
CONTINUOUS
10
237.5
20
-28.5
11
237.5
21
-9.5
0
LINE
8
0
6
CONTINUOUS
10
256.5
20
-9.5
11
275.5
21
-9.5
0
LINE
8
0
6
CONTINUOUS
10
275.5
20
-9.5
11
275.5
21
-28.5
0
LINE
8
0
6
CONTINUOUS
10
275.5
20
-28.5
11
256.5
21
-28.5
0
LINE
8
0
6
CONTINUOUS
10
256.5
20
-28.5
11
256.5
21
-9.5
0
LINE
8
0
6
CONTINUOUS
10
275.5
20
-9.5
11
294.5
21
-9.5
0
LINE
8
0
6
CONTINUOUS
10
294.5
20
-9.5
11
294.5
21
-28.5
0
LINE
8
0
6
CONTINUOUS
10
294.5
20
-28.5
11
275.5
21
-28.5
0
LINE
8
0
6
CONTINUOUS
10
275.5
20
-28.5
11
275.5
21
-9.5
0
LINE
8
0
6
CONTINUOUS
10
294.5
20
-9.5
11
313.5
21
-9.5
0
LINE
8
0
6
CONTINUOUS
10
313.5
20
-9.5
11
313.5
21
-28.5
0
LINE
8
0
6
CONTINUOUS
10
313.5
20
-28.5
11
294.5
21
-28.5
0
LINE
8
0
6
CONTINUOUS
10
294.5
20
-28.5
11
294.5
21
-9.5
0
LINE
8
0
6
CONTINUOUS
10
313.5
20
-9.5
11
332.5
21
-9.5
0
LINE
8
0
6
CONTINUOUS
10
332.5
20
-9.5
11
332.5
21
-28.5
0
LINE
8
0
6
CONTINUOUS
10
332.5
20
-28.5
11
313.5
21
-28.5
0
LINE
8
0
6
CONTINUOUS
10
313.5
20
-28.5
11
313.5
21
-9.5
0
LINE
8
0
6
CONTINUOUS
10
332.5
20
-9.5
11
361
21
-9.5
0
LINE
8
0
6
CONTINUOUS
10
361
20
-9.5
11
361
21
-28.5
0
LINE
8
0
6
CONTINUOUS
10
361
20
-28.5
11
332.5
21
-28.5
0
LINE
8
0
6
CONTINUOUS
10
332.5
20
-28.5
11
332.5
21
-9.5
0
LINE
8
0
6
CONTINUOUS
10
-9.5
20
-28.5
11
19
21
-28.5
0
LINE
8
0
6
CONTINUOUS
10
19
20
-28.5
11
19
21
-47.5
0
LINE
8
0
6
CONTINUOUS
10
19
20
-47.5
11
-9.5
21
-47.5
0
LINE
8
0
6
CONTINUOUS
10
-9.5
20
-47.5
11
-9.5
21
-28.5
0
LINE
8
0
6
CONTINUOUS
10
19
20
-28.5
11
38
21
-28.5
0
LINE
8
0
6
CONTINUOUS
10
38
20
-28.5
11
38
21
-47.5
0
LINE
8
0
6
CONTINUOUS
10
38
20
-47.5
11
19
21
-47.5
0
LINE
8
0
6
CONTINUOUS
10
19
20
-47.5
11
19
21
-28.5
0
LINE
8
0
6
CONTINUOUS
10
38
20
-28.5
11
57
21
-28.5
0
LINE
8
0
6
CONTINUOUS
10
57
20
-28.5
11
57
21
-47.5
0
LINE
8
0
6
CONTINUOUS
10
57
20
-47.5
11
38
21
-47.5
0
LINE
8
0
6
CONTINUOUS
10
38
20
-47.5
11
38
21
-28.5
0
LINE
8
0
6
CONTINUOUS
10
57
20
-28.5
11
76
21
-28.5
0
LINE
8
0
6
CONTINUOUS
10
76
20
-28.5
11
76
21
-47.5
0
LINE
8
0
6
CONTINUOUS
10
76
20
-47.5
11
57
21
-47.5
0
LINE
8
0
6
CONTINUOUS
10
57
20
-47.5
11
57
21
-28.5
0
LINE
8
0
6
CONTINUOUS
10
76
20
-28.5
11
95
21
-28.5
0
LINE
8
0
6
CONTINUOUS
10
95
20
-28.5
11
95
21
-47.5
0
LINE
8
0
6
CONTINUOUS
10
95
20
-47.5
11
76
21
-47.5
0
LINE
8
0
6
CONTINUOUS
10
76
20
-47.5
11
76
21
-28.5
0
LINE
8
0
6
CONTINUOUS
10
95
20
-28.5
11
114
21
-28.5
0
LINE
8
0
6
CONTINUOUS
10
114
20
-28.5
11
114
21
-47.5
0
LINE
8
0
6
CONTINUOUS
10
114
20
-47.5
11
95
21
-47.5
0
LINE
8
0
6
CONTINUOUS
10
95
20
-47.5
11
95
21
-28.5
0
LINE
8
0
6
CONTINUOUS
10
114
20
-28.5
11
133
21
-28.5
0
LINE
8
0
6
CONTINUOUS
10
133
20
-28.5
11
133
21
-47.5
0
LINE
8
0
6
CONTINUOUS
10
133
20
-47.5
11
114
21
-47.5
0
LINE
8
0
6
CONTINUOUS
10
114
20
-47.5
11
114
21
-28.5
0
LINE
8
0
6
CONTINUOUS
10
218.5
20
-28.5
11
237.5
21
-28.5
0
LINE
8
0
6
CONTINUOUS
10
237.5
20
-28.5
11
237.5
21
-47.5
0
LINE
8
0
6
CONTINUOUS
10
237.5
20
-47.5
11
218.5
21
-47.5
0
LINE
8
0
6
CONTINUOUS
10
218.5
20
-47.5
11
218.5
21
-28.5
0
LINE
8
0
6
CONTINUOUS
10
237.5
20
-28.5
11
256.5
21
-28.5
0
LINE
8
0
6
CONTINUOUS
10
256.5
20
-28.5
11
256.5
21
-47.5
0
LINE
8
0
6
CONTINUOUS
10
256.5
20
-47.5
11
237.5
21
-47.5
0
LINE
8
0
6
CONTINUOUS
10
237.5
20
-47.5
11
237.5
21
-28.5
0
LINE
8
0
6
CONTINUOUS
10
256.5
20
-28.5
11
275.5
21
-28.5
0
LINE
8
0
6
CONTINUOUS
10
275.5
20
-28.5
11
275.5
21
-47.5
0
LINE
8
0
6
CONTINUOUS
10
275.5
20
-47.5
11
256.5
21
-47.5
0
LINE
8
0
6
CONTINUOUS
10
256.5
20
-47.5
11
256.5
21
-28.5
0
LINE
8
0
6
CONTINUOUS
10
275.5
20
-28.5
11
294.5
21
-28.5
0
LINE
8
0
6
CONTINUOUS
10
294.5
20
-28.5
11
294.5
21
-47.5
0
LINE
8
0
6
CONTINUOUS
10
294.5
20
-47.5
11
275.5
21
-47.5
0
LINE
8
0
6
CONTINUOUS
10
275.5
20
-47.5
11
275.5
21
-28.5
0
LINE
8
0
6
CONTINUOUS
10
294.5
20
-28.5
11
313.5
21
-28.5
0
LINE
8
0
6
CONTINUOUS
10
313.5
20
-28.5
11
313.5
21
-47.5
0
LINE
8
0
6
CONTINUOUS
10
313.5
20
-47.5
11
294.5
21
-47.5
0
LINE
8
0
6
CONTINUOUS
10
294.5
20
-47.5
11
294.5
21
-28.5
0
LINE
8
0
6
CONTINUOUS
10
313.5
20
-28.5
11
332.5
21
-28.5
0
LINE
8
0
6
CONTINUOUS
10
332.5
20
-28.5
11
332.5
21
-47.5
0
LINE
8
0
6
CONTINUOUS
10
332.5
20
-47.5
11
313.5
21
-47.5
0
LINE
8
0
6
CONTINUOUS
10
313.5
20
-47.5
11
313.5
21
-28.5
0
LINE
8
0
6
CONTINUOUS
10
332.5
20
-28.5
11
361
21
-28.5
0
LINE
8
0
6
CONTINUOUS
10
361
20
-28.5
11
361
21
-47.5
0
LINE
8
0
6
CONTINUOUS
10
361
20
-47.5
11
332.5
21
-47.5
0
LINE
8
0
6
CONTINUOUS
10
332.5
20
-47.5
11
332.5
21
-28.5
0
LINE
8
0
6
CONTINUOUS
10
-9.5
20
-47.5
11
19
21
-47.5
0
LINE
8
0
6
CONTINUOUS
10
19
20
-47.5
11
19
21
-66.5
0
LINE
8
0
6
CONTINUOUS
10
19
20
-66.5
11
-9.5
21
-66.5
0
LINE
8
0
6
CONTINUOUS
10
-9.5
20
-66.5
11
-9.5
21
-47.5
0
LINE
8
0
6
CONTINUOUS
10
19
20
-47.5
11
38
21
-47.5
0
LINE
8
0
6
CONTINUOUS
10
38
20
-47.5
11
38
21
-66.5
0
LINE
8
0
6
CONTINUOUS
10
38
20
-66.5
11
19
21
-66.5
0
LINE
8
0
6
CONTINUOUS
10
19
20
-66.5
11
19
21
-47.5
0
LINE
8
0
6
CONTINUOUS
10
38
20
-47.5
11
57
21
-47.5
0
LINE
8
0
6
CONTINUOUS
10
57
20
-47.5
11
57
21
-66.5
0
LINE
8
0
6
CONTINUOUS
10
57
20
-66.5
11
38
21
-66.5
0
LINE
8
0
6
CONTINUOUS
10
38
20
-66.5
11
38
21
-47.5
0
LINE
8
0
6
CONTINUOUS
10
57
20
-47.5
11
76
21
-47.5
0
LINE
8
0
6
CONTINUOUS
10
76
20
-47.5
11
76
21
-66.5
0
LINE
8
0
6
CONTINUOUS
10
76
20
-66.5
11
57
21
-66.5
0
LINE
8
0
6
CONTINUOUS
10
57
20
-66.5
11
57
21
-47.5
0
LINE
8
0
6
CONTINUOUS
10
76
20
-47.5
11
95
21
-47.5
0
LINE
8
0
6
CONTINUOUS
10
95
20
-47.5
11
95
21
-66.5
0
LINE
8
0
6
CONTINUOUS
10
95
20
-66.5
11
76
21
-66.5
0
LINE
8
0
6
CONTINUOUS
10
76
20
-66.5
11
76
21
-47.5
0
LINE
8
0
6
CONTINUOUS
10
95
20
-47.5
11
114
21
-47.5
0
LINE
8
0
6
CONTINUOUS
10
114
20
-47.5
11
114
21
-66.5
0
LINE
8
0
6
CONTINUOUS
10
114
20
-66.5
11
95
21
-66.5
0
LINE
8
0
6
CONTINUOUS
10
95
20
-66.5
11
95
21
-47.5
0
LINE
8
0
6
CONTINUOUS
10
114
20
-47.5
11
133
21
-47.5
0
LINE
8
0
6
CONTINUOUS
10
133
20
-47.5
11
133
21
-66.5
0
LINE
8
0
6
CONTINUOUS
10
133
20
-66.5
11
114
21
-66.5
0
LINE
8
0
6
CONTINUOUS
10
114
20
-66.5
11
114
21
-47.5
0
LINE
8
0
6
CONTINUOUS
10
218.5
20
-47.5
11
237.5
21
-47.5
0
LINE
8
0
6
CONTINUOUS
10
237.5
20
-47.5
11
237.5
21
-66.5
0
LINE
8
0
6
CONTINUOUS
10
237.5
20
-66.5
11
218.5
21
-66.5
0
LINE
8
0
6
CONTINUOUS
10
218.5
20
-66.5
11
218.5
21
-47.5
0
LINE
8
0
6
CONTINUOUS
10
237.5
20
-47.5
11
256.5
21
-47.5
0
LINE
8
0
6
CONTINUOUS
10
256.5
20
-47.5
11
256.5
21
-66.5
0
LINE
8
0
6
CONTINUOUS
10
256.5
20
-66.5
11
237.5
21
-66.5
0
LINE
8
0
6
CONTINUOUS
10
237.5
20
-66.5
11
237.5
21
-47.5
0
LINE
8
0
6
CONTINUOUS
10
256.5
20
-47.5
11
275.5
21
-47.5
0
LINE
8
0
6
CONTINUOUS
10
275.5
20
-47.5
11
275.5
21
-66.5
0
LINE
8
0
6
CONTINUOUS
10
275.5
20
-66.5
11
256.5
21
-66.5
0
LINE
8
0
6
CONTINUOUS
10
256.5
20
-66.5
11
256.5
21
-47.5
0
LINE
8
0
6
CONTINUOUS
10
275.5
20
-47.5
11
294.5
21
-47.5
0
LINE
8
0
6
CONTINUOUS
10
294.5
20
-47.5
11
294.5
21
-66.5
0
LINE
8
0
6
CONTINUOUS
10
294.5
20
-66.5
11
275.5
21
-66.5
0
LINE
8
0
6
CONTINUOUS
10
275.5
20
-66.5
11
275.5
21
-47.5
0
LINE
8
0
6
CONTINUOUS
10
294.5
20
-47.5
11
313.5
21
-47.5
0
LINE
8
0
6
CONTINUOUS
10
313.5
20
-47.5
11
313.5
21
-66.5
0
LINE
8
0
6
CONTINUOUS
10
313.5
20
-66.5
11
294.5
21
-66.5
0
LINE
8
0
6
CONTINUOUS
10
294.5
20
-66.5
11
294.5
21
-47.5
0
LINE
8
0
6
CONTINUOUS
10
313.5
20
-47.5
11
332.5
21
-47.5
0
LINE
8
0
6
CONTINUOUS
10
332.5
20
-47.5
11
332.5
21
-66.5
0
LINE
8
0
6
CONTINUOUS
10
332.5
20
-66.5
11
313.5
21
-66.5
0
LINE
8
0
6
CONTINUOUS
10
313.5
20
-66.5
11
313.5
21
-47.5
0
LINE
8
0
6
CONTINUOUS
10
332.5
20
-47.5
11
361
21
-47.5
0
LINE
8
0
6
CONTINUOUS
10
361
20
-47.5
11
361
21
-66.5
0
LINE
8
0
6
CONTINUOUS
10
361
20
-66.5
11
332.5
21
-66.5
0
LINE
8
0
6
CONTINUOUS
10
332.5
20
-66.5
11
332.5
21
-47.5
0
LINE
8
0
6
CONTINUOUS
10
-9.5
20
-66.5
11
19
21
-66.5
0
LINE
8
0
6
CONTINUOUS
10
19
20
-66.5
11
19
21
-85.5
0
LINE
8
0
6
CONTINUOUS
10
19
20
-85.5
11
-9.5
21
-85.5
0
LINE
8
0
6
CONTINUOUS
10
-9.5
20
-85.5
11
-9.5
21
-66.5
0
LINE
8
0
6
CONTINUOUS
10
19
20
-66.5
11
38
21
-66.5
0
LINE
8
0
6
CONTINUOUS
10
38
20
-66.5
11
38
21
-85.5
0
LINE
8
0
6
CONTINUOUS
10
38
20
-85.5
11
19
21
-85.5
0
LINE
8
0
6
CONTINUOUS
10
19
20
-85.5
11
19
21
-66.5
0
LINE
8
0
6
CONTINUOUS
10
38
20
-66.5
11
57
21
-66.5
0
LINE
8
0
6
CONTINUOUS
10
57
20
-66.5
11
57
21
-85.5
0
LINE
8
0
6
CONTINUOUS
10
57
20
-85.5
11
38
21
-85.5
0
LINE
8
0
6
CONTINUOUS
10
38
20
-85.5
11
38
21
-66.5
0
LINE
8
0
6
CONTINUOUS
10
57
20
-66.5
11
76
21
-66.5
0
LINE
8
0
6
CONTINUOUS
10
76
20
-66.5
11
76
21
-85.5
0
LINE
8
0
6
CONTINUOUS
10
76
20
-85.5
11
57
21
-85.5
0
LINE
8
0
6
CONTINUOUS
10
57
20
-85.5
11
57
21
-66.5
0
LINE
8
0
6
CONTINUOUS
10
76
20
-66.5
11
95
21
-66.5
0
LINE
8
0
6
CONTINUOUS
10
95
20
-66.5
11
95
21
-85.5
0
LINE
8
0
6
CONTINUOUS
10
95
20
-85.5
11
76
21
-85.5
0
LINE
8
0
6
CONTINUOUS
10
76
20
-85.5
11
76
21
-66.5
0
LINE
8
0
6
CONTINUOUS
10
95
20
-66.5
11
114
21
-66.5
0
LINE
8
0
6
CONTINUOUS
10
114
20
-66.5
11
114
21
-85.5
0
LINE
8
0
6
CONTINUOUS
10
114
20
-85.5
11
95
21
-85.5
0
LINE
8
0
6
CONTINUOUS
10
95
20
-85.5
11
95
21
-66.5
0
LINE
8
0
6
CONTINUOUS
10
114
20
-66.5
11
133
21
-66.5
0
LINE
8
0
6
CONTINUOUS
10
133
20
-66.5
11
133
21
-85.5
0
LINE
8
0
6
CONTINUOUS
10
133
20
-85.5
11
114
21
-85.5
0
LINE
8
0
6
CONTINUOUS
10
114
20
-85.5
11
114
21
-66.5
0
LINE
8
0
6
CONTINUOUS
10
218.5
20
-66.5
11
237.5
21
-66.5
0
LINE
8
0
6
CONTINUOUS
10
237.5
20
-66.5
11
237.5
21
-85.5
0
LINE
8
0
6
CONTINUOUS
10
237.5
20
-85.5
11
218.5
21
-85.5
0
LINE
8
0
6
CONTINUOUS
10
218.5
20
-85.5
11
218.5
21
-66.5
0
LINE
8
0
6
CONTINUOUS
10
237.5
20
-66.5
11
256.5
21
-66.5
0
LINE
8
0
6
CONTINUOUS
10
256.5
20
-66.5
11
256.5
21
-85.5
0
LINE
8
0
6
CONTINUOUS
10
256.5
20
-85.5
11
237.5
21
-85.5
0
LINE
8
0
6
CONTINUOUS
10
237.5
20
-85.5
11
237.5
21
-66.5
0
LINE
8
0
6
CONTINUOUS
10
256.5
20
-66.5
11
275.5
21
-66.5
0
LINE
8
0
6
CONTINUOUS
10
275.5
20
-66.5
11
275.5
21
-85.5
0
LINE
8
0
6
CONTINUOUS
10
275.5
20
-85.5
11
256.5
21
-85.5
0
LINE
8
0
6
CONTINUOUS
10
256.5
20
-85.5
11
256.5
21
-66.5
0
LINE
8
0
6
CONTINUOUS
10
275.5
20
-66.5
11
294.5
21
-66.5
0
LINE
8
0
6
CONTINUOUS
10
294.5
20
-66.5
11
294.5
21
-85.5
0
LINE
8
0
6
CONTINUOUS
10
294.5
20
-85.5
11
275.5
21
-85.5
0
LINE
8
0
6
CONTINUOUS
10
275.5
20
-85.5
11
275.5
21
-66.5
0
LINE
8
0
6
CONTINUOUS
10
294.5
20
-66.5
11
313.5
21
-66.5
0
LINE
8
0
6
CONTINUOUS
10
313.5
20
-66.5
11
313.5
21
-85.5
0
LINE
8
0
6
CONTINUOUS
10
313.5
20
-85.5
11
294.5
21
-85.5
0
LINE
8
0
6
CONTINUOUS
10
294.5
20
-85.5
11
294.5
21
-66.5
0
LINE
8
0
6
CONTINUOUS
10
313.5
20
-66.5
11
332.5
21
-66.5
0
LINE
8
0
6
CONTINUOUS
10
332.5
20
-66.5
11
332.5
21
-85.5
0
LINE
8
0
6
CONTINUOUS
10
332.5
20
-85.5
11
313.5
21
-85.5
0
LINE
8
0
6
CONTINUOUS
10
313.5
20
-85.5
11
313.5
21
-66.5
0
LINE
8
0
6
CONTINUOUS
10
332.5
20
-66.5
11
361
21
-66.5
0
LINE
8
0
6
CONTINUOUS
10
361
20
-66.5
11
361
21
-85.5
0
LINE
8
0
6
CONTINUOUS
10
361
20
-85.5
11
332.5
21
-85.5
0
LINE
8
0
6
CONTINUOUS
10
332.5
20
-85.5
11
332.5
21
-66.5
0
LINE
8
0
6
CONTINUOUS
10
138.681724
20
-85.5000001
11
171.5906894
21
-104.5000001
0
LINE
8
0
6
CONTINUOUS
10
171.5906894
20
-104.5000001
11
162.0906894
21
-120.9544827
0
LINE
8
0
6
CONTINUOUS
10
162.0906894
20
-120.9544827
11
129.181724
21
-101.9544827
0
LINE
8
0
6
CONTINUOUS
10
129.181724
20
-101.9544827
11
138.681724
21
-85.5000001
0
LINE
8
0
6
CONTINUOUS
10
112.7272414
20
-92.4544827
11
129.181724
21
-101.9544827
0
LINE
8
0
6
CONTINUOUS
10
129.181724
20
-101.9544827
11
110.181724
21
-134.8634481
0
LINE
8
0
6
CONTINUOUS
10
110.181724
20
-134.8634481
11
93.7272414
21
-125.3634481
0
LINE
8
0
6
CONTINUOUS
10
93.7272414
20
-125.3634481
11
112.7272414
21
-92.4544827
0
LINE
8
0
6
CONTINUOUS
10
129.1817241
20
-101.9544827
11
145.6362067
21
-111.4544827
0
LINE
8
0
6
CONTINUOUS
10
145.6362067
20
-111.4544827
11
126.6362067
21
-144.3634481
0
LINE
8
0
6
CONTINUOUS
10
126.6362067
20
-144.3634481
11
110.1817241
21
-134.8634481
0
LINE
8
0
6
CONTINUOUS
10
110.1817241
20
-134.8634481
11
129.1817241
21
-101.9544827
0
LINE
8
0
6
CONTINUOUS
10
145.6362067
20
-111.4544827
11
162.0906893
21
-120.9544827
0
LINE
8
0
6
CONTINUOUS
10
162.0906893
20
-120.9544827
11
143.0906893
21
-153.8634481
0
LINE
8
0
6
CONTINUOUS
10
143.0906893
20
-153.8634481
11
126.6362067
21
-144.3634481
0
LINE
8
0
6
CONTINUOUS
10
126.6362067
20
-144.3634481
11
145.6362067
21
-111.4544827
0
LINE
8
0
6
CONTINUOUS
10
179.9093106
20
-104.5000001
11
212.818276
21
-85.5000001
0
LINE
8
0
6
CONTINUOUS
10
212.818276
20
-85.5000001
11
222.318276
21
-101.9544827
0
LINE
8
0
6
CONTINUOUS
10
222.318276
20
-101.9544827
11
189.4093106
21
-120.9544827
0
LINE
8
0
6
CONTINUOUS
10
189.4093106
20
-120.9544827
11
179.9093106
21
-104.5000001
0
LINE
8
0
6
CONTINUOUS
10
189.4093107
20
-120.9544827
11
205.8637933
21
-111.4544827
0
LINE
8
0
6
CONTINUOUS
10
205.8637933
20
-111.4544827
11
224.8637933
21
-144.3634481
0
LINE
8
0
6
CONTINUOUS
10
224.8637933
20
-144.3634481
11
208.4093107
21
-153.8634481
0
LINE
8
0
6
CONTINUOUS
10
208.4093107
20
-153.8634481
11
189.4093107
21
-120.9544827
0
LINE
8
0
6
CONTINUOUS
10
205.8637934
20
-111.4544827
11
222.318276
21
-101.9544827
0
LINE
8
0
6
CONTINUOUS
10
222.318276
20
-101.9544827
11
241.318276
21
-134.8634481
0
LINE
8
0
6
CONTINUOUS
10
241.318276
20
-134.8634481
11
224.8637934
21
-144.3634481
0
LINE
8
0
6
CONTINUOUS
10
224.8637934
20
-144.3634481
11
205.8637934
21
-111.4544827
0
LINE
8
0
6
CONTINUOUS
10
222.318276
20
-101.9544827
11
238.7727586
21
-92.4544827
0
LINE
8
0
6
CONTINUOUS
10
238.7727586
20
-92.4544827
11
257.7727586
21
-125.3634481
0
LINE
8
0
6
CONTINUOUS
10
257.7727586
20
-125.3634481
11
241.318276
21
-134.8634481
0
LINE
8
0
6
CONTINUOUS
10
241.318276
20
-134.8634481
11
222.318276
21
-101.9544827
0
ENDSEC
0
EOF