0
SECTION
2
HEADER
9
$INSUNITS
70
4
0
ENDSEC
0
SECTION
2
TABLES
0
TABLE
2
LTYPE
0
LTYPE
72
65
70
0
2
CONTINUOUS
3
______
73
0
40
0
0
LTYPE
72
65
70
0
2
DASHED
3
_ _ _ 
73
2
40
7.5
49
5
49
-2.5
0
LTYPE
72
65
70
0
2
DOTTED
3
. . . 
73
2
40
1.5
49
0.5
49
-1
0
ENDTAB
0
TABLE
2
LAYER
0
ENDTAB
0
ENDSEC
0
SECTION
2
ENTITIES
0
POLYLINE
8
0
6
CONTINUOUS
66
1
70
1
0
VERTEX
8
0
10
112.844782
20
-105.7146597
42
0.4142136
0
VERTEX
8
0
10
112.9911922
20
-106.2610698
0
VERTEX
8
0
10
124.4227276
20
-112.8610699
42
0.4142136
0
VERTEX
8
0
10
124.9691377
20
-112.7146597
0
VERTEX
8
0
10
131.5691378
20
-101.2831243
42
0.4142136
0
VERTEX
8
0
10
131.4227276
20
-100.7367142
0
VERTEX
8
0
10
119.9911922
20
-94.1367141
42
0.4142136
0
VERTEX
8
0
10
119.4447821
20
-94.2831243
0
SEQEND
0
POLYLINE
8
0
6
CONTINUOUS
66
1
70
1
0
VERTEX
8
0
10
217.9308622
20
-112.7146597
42
0.4142136
0
VERTEX
8
0
10
218.4772724
20
-112.8610698
0
VERTEX
8
0
10
229.9088078
20
-106.2610699
42
0.4142136
0
VERTEX
8
0
10
230.0552179
20
-105.7146597
0
VERTEX
8
0
10
223.455218
20
-94.2831243
42
0.4142136
0
VERTEX
8
0
10
222.9088078
20
-94.1367142
0
VERTEX
8
0
10
211.4772724
20
-100.7367141
42
0.4142136
0
VERTEX
8
0
10
211.3308623
20
-101.2831243
0
SEQEND
0
POLYLINE
8
0
6
CONTINUOUS
66
1
70
1
0
VERTEX
8
0
10
73.810606
20
-116.1738356
42
0.4142136
0
VERTEX
8
0
10
73.9570162
20
-116.7202457
0
VERTEX
8
0
10
85.3885516
20
-123.3202458
42
0.4142136
0
VERTEX
8
0
10
85.9349617
20
-123.1738356
0
VERTEX
8
0
10
92.5349618
20
-111.7423002
42
0.4142136
0
VERTEX
8
0
10
92.3885516
20
-111.1958901
0
VERTEX
8
0
10
80.9570162
20
-104.59589
42
0.4142136
0
VERTEX
8
0
10
80.4106061
20
-104.7423002
0
SEQEND
0
POLYLINE
8
0
6
CONTINUOUS
66
1
70
1
0
VERTEX
8
0
10
90.30839
20
-125.6988356
42
0.4142136
0
VERTEX
8
0
10
90.4548002
20
-126.2452457
0
VERTEX
8
0
10
101.8863356
20
-132.8452458
42
0.4142136
0
VERTEX
8
0
10
102.4327457
20
-132.6988356
0
VERTEX
8
0
10
109.0327458
20
-121.2673002
42
0.4142136
0
VERTEX
8
0
10
108.8863356
20
-120.7208901
0
VERTEX
8
0
10
97.4548002
20
-114.12089
42
0.4142136
0
VERTEX
8
0
10
96.9083901
20
-114.2673002
0
SEQEND
0
POLYLINE
8
0
6
CONTINUOUS
66
1
70
1
0
VERTEX
8
0
10
106.8061739
20
-135.2238356
42
0.4142136
0
VERTEX
8
0
10
106.9525841
20
-135.7702457
0
VERTEX
8
0
10
118.3841195
20
-142.3702458
42
0.4142136
0
VERTEX
8
0
10
118.9305296
20
-142.2238356
0
VERTEX
8
0
10
125.5305297
20
-130.7923002
42
0.4142136
0
VERTEX
8
0
10
125.3841195
20
-130.2458901
0
VERTEX
8
0
10
113.9525841
20
-123.64589
42
0.4142136
0
VERTEX
8
0
10
113.406174
20
-123.7923002
0
SEQEND
0
POLYLINE
8
0
6
CONTINUOUS
66
1
70
1
0
VERTEX
8
0
10
223.9694703
20
-142.2238356
42
0.4142136
0
VERTEX
8
0
10
224.5158805
20
-142.3702457
0
VERTEX
8
0
10
235.9474159
20
-135.7702458
42
0.4142136
0
VERTEX
8
0
10
236.093826
20
-135.2238356
0
VERTEX
8
0
10
229.4938261
20
-123.7923002
42
0.4142136
0
VERTEX
8
0
10
228.9474159
20
-123.6458901
0
VERTEX
8
0
10
217.5158805
20
-130.24589
42
0.4142136
0
VERTEX
8
0
10
217.3694704
20
-130.7923002
0
SEQEND
0
POLYLINE
8
0
6
CONTINUOUS
66
1
70
1
0
VERTEX
8
0
10
240.4672542
20
-132.6988356
42
0.4142136
0
VERTEX
8
0
10
241.0136644
20
-132.8452457
0
VERTEX
8
0
10
252.4451998
20
-126.2452458
42
0.4142136
0
VERTEX
8
0
10
252.5916099
20
-125.6988356
0
VERTEX
8
0
10
245.99161
20
-114.2673002
42
0.4142136
0
VERTEX
8
0
10
245.4451998
20
-114.1208901
0
VERTEX
8
0
10
234.0136644
20
-120.72089
42
0.4142136
0
VERTEX
8
0
10
233.8672543
20
-121.2673002
0
SEQEND
0
POLYLINE
8
0
6
CONTINUOUS
66
1
70
1
0
VERTEX
8
0
10
256.9650382
20
-123.1738356
42
0.4142136
0
VERTEX
8
0
10
257.5114484
20
-123.3202457
0
VERTEX
8
0
10
268.9429838
20
-116.7202458
42
0.4142136
0
VERTEX
8
0
10
269.0893939
20
-116.1738356
0
VERTEX
8
0
10
262.489394
20
-104.7423002
42
0.4142136
0
VERTEX
8
0
10
261.9429838
20
-104.5958901
0
VERTEX
8
0
10
250.5114484
20
-111.19589
42
0.4142136
0
VERTEX
8
0
10
250.3650383
20
-111.7423002
0
SEQEND
0
POLYLINE
8
0
6
CONTINUOUS
66
1
70
1
0
VERTEX
8
0
10
-7
20
-6.6
42
0.4142136
0
VERTEX
8
0
10
-6.6
20
-7
0
VERTEX
8
0
10
6.6
20
-7
42
0.4142136
0
VERTEX
8
0
10
7
20
-6.6
0
VERTEX
8
0
10
7
20
6.6
42
0.4142136
0
VERTEX
8
0
10
6.6
20
7
0
VERTEX
8
0
10
-6.6
20
7
42
0.4142136
0
VERTEX
8
0
10
-7
20
6.6
0
SEQEND
0
POLYLINE
8
0
6
CONTINUOUS
66
1
70
1
0
VERTEX
8
0
10
12.05
20
-6.6
42
0.4142136
0
VERTEX
8
0
10
12.45
20
-7
0
VERTEX
8
0
10
25.65
20
-7
42
0.4142136
0
VERTEX
8
0
10
26.05
20
-6.6
0
VERTEX
8
0
10
26.05
20
6.6
42
0.4142136
0
VERTEX
8
0
10
25.65
20
7
0
VERTEX
8
0
10
12.45
20
7
42
0.4142136
0
VERTEX
8
0
10
12.05
20
6.6
0
SEQEND
0
POLYLINE
8
0
6
CONTINUOUS
66
1
70
1
0
VERTEX
8
0
10
31.1
20
-6.6
42
0.4142136
0
VERTEX
8
0
10
31.5
20
-7
0
VERTEX
8
0
10
44.7
20
-7
42
0.4142136
0
VERTEX
8
0
10
45.1
20
-6.6
0
VERTEX
8
0
10
45.1
20
6.6
42
0.4142136
0
VERTEX
8
0
10
44.7
20
7
0
VERTEX
8
0
10
31.5
20
7
42
0.4142136
0
VERTEX
8
0
10
31.1
20
6.6
0
SEQEND
0
POLYLINE
8
0
6
CONTINUOUS
66
1
70
1
0
VERTEX
8
0
10
50.15
20
-6.6
42
0.4142136
0
VERTEX
8
0
10
50.55
20
-7
0
VERTEX
8
0
10
63.75
20
-7
42
0.4142136
0
VERTEX
8
0
10
64.15
20
-6.6
0
VERTEX
8
0
10
64.15
20
6.6
42
0.4142136
0
VERTEX
8
0
10
63.75
20
7
0
VERTEX
8
0
10
50.55
20
7
42
0.4142136
0
VERTEX
8
0
10
50.15
20
6.6
0
SEQEND
0
POLYLINE
8
0
6
CONTINUOUS
66
1
70
1
0
VERTEX
8
0
10
69.2
20
-6.6
42
0.4142136
0
VERTEX
8
0
10
69.6
20
-7
0
VERTEX
8
0
10
82.8
20
-7
42
0.4142136
0
VERTEX
8
0
10
83.2
20
-6.6
0
VERTEX
8
0
10
83.2
20
6.6
42
0.4142136
0
VERTEX
8
0
10
82.8
20
7
0
VERTEX
8
0
10
69.6
20
7
42
0.4142136
0
VERTEX
8
0
10
69.2
20
6.6
0
SEQEND
0
POLYLINE
8
0
6
CONTINUOUS
66
1
70
1
0
VERTEX
8
0
10
88.25
20
-6.6
42
0.4142136
0
VERTEX
8
0
10
88.65
20
-7
0
VERTEX
8
0
10
101.85
20
-7
42
0.4142136
0
VERTEX
8
0
10
102.25
20
-6.6
0
VERTEX
8
0
10
102.25
20
6.6
42
0.4142136
0
VERTEX
8
0
10
101.85
20
7
0
VERTEX
8
0
10
88.65
20
7
42
0.4142136
0
VERTEX
8
0
10
88.25
20
6.6
0
SEQEND
0
POLYLINE
8
0
6
CONTINUOUS
66
1
70
1
0
VERTEX
8
0
10
240.65
20
-6.6
42
0.4142136
0
VERTEX
8
0
10
241.05
20
-7
0
VERTEX
8
0
10
254.25
20
-7
42
0.4142136
0
VERTEX
8
0
10
254.65
20
-6.6
0
VERTEX
8
0
10
254.65
20
6.6
42
0.4142136
0
VERTEX
8
0
10
254.25
20
7
0
VERTEX
8
0
10
241.05
20
7
42
0.4142136
0
VERTEX
8
0
10
240.65
20
6.6
0
SEQEND
0
POLYLINE
8
0
6
CONTINUOUS
66
1
70
1
0
VERTEX
8
0
10
259.7
20
-6.6
42
0.4142136
0
VERTEX
8
0
10
260.1
20
-7
0
VERTEX
8
0
10
273.3
20
-7
42
0.4142136
0
VERTEX
8
0
10
273.7
20
-6.6
0
VERTEX
8
0
10
273.7
20
6.6
42
0.4142136
0
VERTEX
8
0
10
273.3
20
7
0
VERTEX
8
0
10
260.1
20
7
42
0.4142136
0
VERTEX
8
0
10
259.7
20
6.6
0
SEQEND
0
POLYLINE
8
0
6
CONTINUOUS
66
1
70
1
0
VERTEX
8
0
10
278.75
20
-6.6
42
0.4142136
0
VERTEX
8
0
10
279.15
20
-7
0
VERTEX
8
0
10
292.35
20
-7
42
0.4142136
0
VERTEX
8
0
10
292.75
20
-6.6
0
VERTEX
8
0
10
292.75
20
6.6
42
0.4142136
0
VERTEX
8
0
10
292.35
20
7
0
VERTEX
8
0
10
279.15
20
7
42
0.4142136
0
VERTEX
8
0
10
278.75
20
6.6
0
SEQEND
0
POLYLINE
8
0
6
CONTINUOUS
66
1
70
1
0
VERTEX
8
0
10
297.8
20
-6.6
42
0.4142136
0
VERTEX
8
0
10
298.2
20
-7
0
VERTEX
8
0
10
311.4
20
-7
42
0.4142136
0
VERTEX
8
0
10
311.8
20
-6.6
0
VERTEX
8
0
10
311.8
20
6.6
42
0.4142136
0
VERTEX
8
0
10
311.4
20
7
0
VERTEX
8
0
10
298.2
20
7
42
0.4142136
0
VERTEX
8
0
10
297.8
20
6.6
0
SEQEND
0
POLYLINE
8
0
6
CONTINUOUS
66
1
70
1
0
VERTEX
8
0
10
316.85
20
-6.6
42
0.4142136
0
VERTEX
8
0
10
317.25
20
-7
0
VERTEX
8
0
10
330.45
20
-7
42
0.4142136
0
VERTEX
8
0
10
330.85
20
-6.6
0
VERTEX
8
0
10
330.85
20
6.6
42
0.4142136
0
VERTEX
8
0
10
330.45
20
7
0
VERTEX
8
0
10
317.25
20
7
42
0.4142136
0
VERTEX
8
0
10
316.85
20
6.6
0
SEQEND
0
POLYLINE
8
0
6
CONTINUOUS
66
1
70
1
0
VERTEX
8
0
10
335.9
20
-6.6
42
0.4142136
0
VERTEX
8
0
10
336.3
20
-7
0
VERTEX
8
0
10
349.5
20
-7
42
0.4142136
0
VERTEX
8
0
10
349.9
20
-6.6
0
VERTEX
8
0
10
349.9
20
6.6
42
0.4142136
0
VERTEX
8
0
10
349.5
20
7
0
VERTEX
8
0
10
336.3
20
7
42
0.4142136
0
VERTEX
8
0
10
335.9
20
6.6
0
SEQEND
0
POLYLINE
8
0
6
CONTINUOUS
66
1
70
1
0
VERTEX
8
0
10
-30.8125
20
-25.65
42
0.4142136
0
VERTEX
8
0
10
-30.4125
20
-26.05
0
VERTEX
8
0
10
-17.2125
20
-26.05
42
0.4142136
0
VERTEX
8
0
10
-16.8125
20
-25.65
0
VERTEX
8
0
10
-16.8125
20
-12.45
42
0.4142136
0
VERTEX
8
0
10
-17.2125
20
-12.05
0
VERTEX
8
0
10
-30.4125
20
-12.05
42
0.4142136
0
VERTEX
8
0
10
-30.8125
20
-12.45
0
SEQEND
0
POLYLINE
8
0
6
CONTINUOUS
66
1
70
1
0
VERTEX
8
0
10
-7
20
-25.65
42
0.4142136
0
VERTEX
8
0
10
-6.6
20
-26.05
0
VERTEX
8
0
10
6.6
20
-26.05
42
0.4142136
0
VERTEX
8
0
10
7
20
-25.65
0
VERTEX
8
0
10
7
20
-12.45
42
0.4142136
0
VERTEX
8
0
10
6.6
20
-12.05
0
VERTEX
8
0
10
-6.6
20
-12.05
42
0.4142136
0
VERTEX
8
0
10
-7
20
-12.45
0
SEQEND
0
POLYLINE
8
0
6
CONTINUOUS
66
1
70
1
0
VERTEX
8
0
10
12.05
20
-25.65
42
0.4142136
0
VERTEX
8
0
10
12.45
20
-26.05
0
VERTEX
8
0
10
25.65
20
-26.05
42
0.4142136
0
VERTEX
8
0
10
26.05
20
-25.65
0
VERTEX
8
0
10
26.05
20
-12.45
42
0.4142136
0
VERTEX
8
0
10
25.65
20
-12.05
0
VERTEX
8
0
10
12.45
20
-12.05
42
0.4142136
0
VERTEX
8
0
10
12.05
20
-12.45
0
SEQEND
0
POLYLINE
8
0
6
CONTINUOUS
66
1
70
1
0
VERTEX
8
0
10
31.1
20
-25.65
42
0.4142136
0
VERTEX
8
0
10
31.5
20
-26.05
0
VERTEX
8
0
10
44.7
20
-26.05
42
0.4142136
0
VERTEX
8
0
10
45.1
20
-25.65
0
VERTEX
8
0
10
45.1
20
-12.45
42
0.4142136
0
VERTEX
8
0
10
44.7
20
-12.05
0
VERTEX
8
0
10
31.5
20
-12.05
42
0.4142136
0
VERTEX
8
0
10
31.1
20
-12.45
0
SEQEND
0
POLYLINE
8
0
6
CONTINUOUS
66
1
70
1
0
VERTEX
8
0
10
50.15
20
-25.65
42
0.4142136
0
VERTEX
8
0
10
50.55
20
-26.05
0
VERTEX
8
0
10
63.75
20
-26.05
42
0.4142136
0
VERTEX
8
0
10
64.15
20
-25.65
0
VERTEX
8
0
10
64.15
20
-12.45
42
0.4142136
0
VERTEX
8
0
10
63.75
20
-12.05
0
VERTEX
8
0
10
50.55
20
-12.05
42
0.4142136
0
VERTEX
8
0
10
50.15
20
-12.45
0
SEQEND
0
POLYLINE
8
0
6
CONTINUOUS
66
1
70
1
0
VERTEX
8
0
10
69.2
20
-25.65
42
0.4142136
0
VERTEX
8
0
10
69.6
20
-26.05
0
VERTEX
8
0
10
82.8
20
-26.05
42
0.4142136
0
VERTEX
8
0
10
83.2
20
-25.65
0
VERTEX
8
0
10
83.2
20
-12.45
42
0.4142136
0
VERTEX
8
0
10
82.8
20
-12.05
0
VERTEX
8
0
10
69.6
20
-12.05
42
0.4142136
0
VERTEX
8
0
10
69.2
20
-12.45
0
SEQEND
0
POLYLINE
8
0
6
CONTINUOUS
66
1
70
1
0
VERTEX
8
0
10
88.25
20
-25.65
42
0.4142136
0
VERTEX
8
0
10
88.65
20
-26.05
0
VERTEX
8
0
10
101.85
20
-26.05
42
0.4142136
0
VERTEX
8
0
10
102.25
20
-25.65
0
VERTEX
8
0
10
102.25
20
-12.45
42
0.4142136
0
VERTEX
8
0
10
101.85
20
-12.05
0
VERTEX
8
0
10
88.65
20
-12.05
42
0.4142136
0
VERTEX
8
0
10
88.25
20
-12.45
0
SEQEND
0
POLYLINE
8
0
6
CONTINUOUS
66
1
70
1
0
VERTEX
8
0
10
240.65
20
-25.65
42
0.4142136
0
VERTEX
8
0
10
241.05
20
-26.05
0
VERTEX
8
0
10
254.25
20
-26.05
42
0.4142136
0
VERTEX
8
0
10
254.65
20
-25.65
0
VERTEX
8
0
10
254.65
20
-12.45
42
0.4142136
0
VERTEX
8
0
10
254.25
20
-12.05
0
VERTEX
8
0
10
241.05
20
-12.05
42
0.4142136
0
VERTEX
8
0
10
240.65
20
-12.45
0
SEQEND
0
POLYLINE
8
0
6
CONTINUOUS
66
1
70
1
0
VERTEX
8
0
10
259.7
20
-25.65
42
0.4142136
0
VERTEX
8
0
10
260.1
20
-26.05
0
VERTEX
8
0
10
273.3
20
-26.05
42
0.4142136
0
VERTEX
8
0
10
273.7
20
-25.65
0
VERTEX
8
0
10
273.7
20
-12.45
42
0.4142136
0
VERTEX
8
0
10
273.3
20
-12.05
0
VERTEX
8
0
10
260.1
20
-12.05
42
0.4142136
0
VERTEX
8
0
10
259.7
20
-12.45
0
SEQEND
0
POLYLINE
8
0
6
CONTINUOUS
66
1
70
1
0
VERTEX
8
0
10
278.75
20
-25.65
42
0.4142136
0
VERTEX
8
0
10
279.15
20
-26.05
0
VERTEX
8
0
10
292.35
20
-26.05
42
0.4142136
0
VERTEX
8
0
10
292.75
20
-25.65
0
VERTEX
8
0
10
292.75
20
-12.45
42
0.4142136
0
VERTEX
8
0
10
292.35
20
-12.05
0
VERTEX
8
0
10
279.15
20
-12.05
42
0.4142136
0
VERTEX
8
0
10
278.75
20
-12.45
0
SEQEND
0
POLYLINE
8
0
6
CONTINUOUS
66
1
70
1
0
VERTEX
8
0
10
297.8
20
-25.65
42
0.4142136
0
VERTEX
8
0
10
298.2
20
-26.05
0
VERTEX
8
0
10
311.4
20
-26.05
42
0.4142136
0
VERTEX
8
0
10
311.8
20
-25.65
0
VERTEX
8
0
10
311.8
20
-12.45
42
0.4142136
0
VERTEX
8
0
10
311.4
20
-12.05
0
VERTEX
8
0
10
298.2
20
-12.05
42
0.4142136
0
VERTEX
8
0
10
297.8
20
-12.45
0
SEQEND
0
POLYLINE
8
0
6
CONTINUOUS
66
1
70
1
0
VERTEX
8
0
10
316.85
20
-25.65
42
0.4142136
0
VERTEX
8
0
10
317.25
20
-26.05
0
VERTEX
8
0
10
330.45
20
-26.05
42
0.4142136
0
VERTEX
8
0
10
330.85
20
-25.65
0
VERTEX
8
0
10
330.85
20
-12.45
42
0.4142136
0
VERTEX
8
0
10
330.45
20
-12.05
0
VERTEX
8
0
10
317.25
20
-12.05
42
0.4142136
0
VERTEX
8
0
10
316.85
20
-12.45
0
SEQEND
0
POLYLINE
8
0
6
CONTINUOUS
66
1
70
1
0
VERTEX
8
0
10
335.9
20
-25.65
42
0.4142136
0
VERTEX
8
0
10
336.3
20
-26.05
0
VERTEX
8
0
10
349.5
20
-26.05
42
0.4142136
0
VERTEX
8
0
10
349.9
20
-25.65
0
VERTEX
8
0
10
349.9
20
-12.45
42
0.4142136
0
VERTEX
8
0
10
349.5
20
-12.05
0
VERTEX
8
0
10
336.3
20
-12.05
42
0.4142136
0
VERTEX
8
0
10
335.9
20
-12.45
0
SEQEND
0
POLYLINE
8
0
6
CONTINUOUS
66
1
70
1
0
VERTEX
8
0
10
359.7125
20
-25.65
42
0.4142136
0
VERTEX
8
0
10
360.1125
20
-26.05
0
VERTEX
8
0
10
373.3125
20
-26.05
42
0.4142136
0
VERTEX
8
0
10
373.7125
20
-25.65
0
VERTEX
8
0
10
373.7125
20
-12.45
42
0.4142136
0
VERTEX
8
0
10
373.3125
20
-12.05
0
VERTEX
8
0
10
360.1125
20
-12.05
42
0.4142136
0
VERTEX
8
0
10
359.7125
20
-12.45
0
SEQEND
0
POLYLINE
8
0
6
CONTINUOUS
66
1
70
1
0
VERTEX
8
0
10
-30.8125
20
-44.7
42
0.4142136
0
VERTEX
8
0
10
-30.4125
20
-45.1
0
VERTEX
8
0
10
-17.2125
20
-45.1
42
0.4142136
0
VERTEX
8
0
10
-16.8125
20
-44.7
0
VERTEX
8
0
10
-16.8125
20
-31.5
42
0.4142136
0
VERTEX
8
0
10
-17.2125
20
-31.1
0
VERTEX
8
0
10
-30.4125
20
-31.1
42
0.4142136
0
VERTEX
8
0
10
-30.8125
20
-31.5
0
SEQEND
0
POLYLINE
8
0
6
CONTINUOUS
66
1
70
1
0
VERTEX
8
0
10
-7
20
-44.7
42
0.4142136
0
VERTEX
8
0
10
-6.6
20
-45.1
0
VERTEX
8
0
10
6.6
20
-45.1
42
0.4142136
0
VERTEX
8
0
10
7
20
-44.7
0
VERTEX
8
0
10
7
20
-31.5
42
0.4142136
0
VERTEX
8
0
10
6.6
20
-31.1
0
VERTEX
8
0
10
-6.6
20
-31.1
42
0.4142136
0
VERTEX
8
0
10
-7
20
-31.5
0
SEQEND
0
POLYLINE
8
0
6
CONTINUOUS
66
1
70
1
0
VERTEX
8
0
10
12.05
20
-44.7
42
0.4142136
0
VERTEX
8
0
10
12.45
20
-45.1
0
VERTEX
8
0
10
25.65
20
-45.1
42
0.4142136
0
VERTEX
8
0
10
26.05
20
-44.7
0
VERTEX
8
0
10
26.05
20
-31.5
42
0.4142136
0
VERTEX
8
0
10
25.65
20
-31.1
0
VERTEX
8
0
10
12.45
20
-31.1
42
0.4142136
0
VERTEX
8
0
10
12.05
20
-31.5
0
SEQEND
0
POLYLINE
8
0
6
CONTINUOUS
66
1
70
1
0
VERTEX
8
0
10
31.1
20
-44.7
42
0.4142136
0
VERTEX
8
0
10
31.5
20
-45.1
0
VERTEX
8
0
10
44.7
20
-45.1
42
0.4142136
0
VERTEX
8
0
10
45.1
20
-44.7
0
VERTEX
8
0
10
45.1
20
-31.5
42
0.4142136
0
VERTEX
8
0
10
44.7
20
-31.1
0
VERTEX
8
0
10
31.5
20
-31.1
42
0.4142136
0
VERTEX
8
0
10
31.1
20
-31.5
0
SEQEND
0
POLYLINE
8
0
6
CONTINUOUS
66
1
70
1
0
VERTEX
8
0
10
50.15
20
-44.7
42
0.4142136
0
VERTEX
8
0
10
50.55
20
-45.1
0
VERTEX
8
0
10
63.75
20
-45.1
42
0.4142136
0
VERTEX
8
0
10
64.15
20
-44.7
0
VERTEX
8
0
10
64.15
20
-31.5
42
0.4142136
0
VERTEX
8
0
10
63.75
20
-31.1
0
VERTEX
8
0
10
50.55
20
-31.1
42
0.4142136
0
VERTEX
8
0
10
50.15
20
-31.5
0
SEQEND
0
POLYLINE
8
0
6
CONTINUOUS
66
1
70
1
0
VERTEX
8
0
10
69.2
20
-44.7
42
0.4142136
0
VERTEX
8
0
10
69.6
20
-45.1
0
VERTEX
8
0
10
82.8
20
-45.1
42
0.4142136
0
VERTEX
8
0
10
83.2
20
-44.7
0
VERTEX
8
0
10
83.2
20
-31.5
42
0.4142136
0
VERTEX
8
0
10
82.8
20
-31.1
0
VERTEX
8
0
10
69.6
20
-31.1
42
0.4142136
0
VERTEX
8
0
10
69.2
20
-31.5
0
SEQEND
0
POLYLINE
8
0
6
CONTINUOUS
66
1
70
1
0
VERTEX
8
0
10
88.25
20
-44.7
42
0.4142136
0
VERTEX
8
0
10
88.65
20
-45.1
0
VERTEX
8
0
10
101.85
20
-45.1
42
0.4142136
0
VERTEX
8
0
10
102.25
20
-44.7
0
VERTEX
8
0
10
102.25
20
-31.5
42
0.4142136
0
VERTEX
8
0
10
101.85
20
-31.1
0
VERTEX
8
0
10
88.65
20
-31.1
42
0.4142136
0
VERTEX
8
0
10
88.25
20
-31.5
0
SEQEND
0
POLYLINE
8
0
6
CONTINUOUS
66
1
70
1
0
VERTEX
8
0
10
240.65
20
-44.7
42
0.4142136
0
VERTEX
8
0
10
241.05
20
-45.1
0
VERTEX
8
0
10
254.25
20
-45.1
42
0.4142136
0
VERTEX
8
0
10
254.65
20
-44.7
0
VERTEX
8
0
10
254.65
20
-31.5
42
0.4142136
0
VERTEX
8
0
10
254.25
20
-31.1
0
VERTEX
8
0
10
241.05
20
-31.1
42
0.4142136
0
VERTEX
8
0
10
240.65
20
-31.5
0
SEQEND
0
POLYLINE
8
0
6
CONTINUOUS
66
1
70
1
0
VERTEX
8
0
10
259.7
20
-44.7
42
0.4142136
0
VERTEX
8
0
10
260.1
20
-45.1
0
VERTEX
8
0
10
273.3
20
-45.1
42
0.4142136
0
VERTEX
8
0
10
273.7
20
-44.7
0
VERTEX
8
0
10
273.7
20
-31.5
42
0.4142136
0
VERTEX
8
0
10
273.3
20
-31.1
0
VERTEX
8
0
10
260.1
20
-31.1
42
0.4142136
0
VERTEX
8
0
10
259.7
20
-31.5
0
SEQEND
0
POLYLINE
8
0
6
CONTINUOUS
66
1
70
1
0
VERTEX
8
0
10
278.75
20
-44.7
42
0.4142136
0
VERTEX
8
0
10
279.15
20
-45.1
0
VERTEX
8
0
10
292.35
20
-45.1
42
0.4142136
0
VERTEX
8
0
10
292.75
20
-44.7
0
VERTEX
8
0
10
292.75
20
-31.5
42
0.4142136
0
VERTEX
8
0
10
292.35
20
-31.1
0
VERTEX
8
0
10
279.15
20
-31.1
42
0.4142136
0
VERTEX
8
0
10
278.75
20
-31.5
0
SEQEND
0
POLYLINE
8
0
6
CONTINUOUS
66
1
70
1
0
VERTEX
8
0
10
297.8
20
-44.7
42
0.4142136
0
VERTEX
8
0
10
298.2
20
-45.1
0
VERTEX
8
0
10
311.4
20
-45.1
42
0.4142136
0
VERTEX
8
0
10
311.8
20
-44.7
0
VERTEX
8
0
10
311.8
20
-31.5
42
0.4142136
0
VERTEX
8
0
10
311.4
20
-31.1
0
VERTEX
8
0
10
298.2
20
-31.1
42
0.4142136
0
VERTEX
8
0
10
297.8
20
-31.5
0
SEQEND
0
POLYLINE
8
0
6
CONTINUOUS
66
1
70
1
0
VERTEX
8
0
10
316.85
20
-44.7
42
0.4142136
0
VERTEX
8
0
10
317.25
20
-45.1
0
VERTEX
8
0
10
330.45
20
-45.1
42
0.4142136
0
VERTEX
8
0
10
330.85
20
-44.7
0
VERTEX
8
0
10
330.85
20
-31.5
42
0.4142136
0
VERTEX
8
0
10
330.45
20
-31.1
0
VERTEX
8
0
10
317.25
20
-31.1
42
0.4142136
0
VERTEX
8
0
10
316.85
20
-31.5
0
SEQEND
0
POLYLINE
8
0
6
CONTINUOUS
66
1
70
1
0
VERTEX
8
0
10
335.9
20
-44.7
42
0.4142136
0
VERTEX
8
0
10
336.3
20
-45.1
0
VERTEX
8
0
10
349.5
20
-45.1
42
0.4142136
0
VERTEX
8
0
10
349.9
20
-44.7
0
VERTEX
8
0
10
349.9
20
-31.5
42
0.4142136
0
VERTEX
8
0
10
349.5
20
-31.1
0
VERTEX
8
0
10
336.3
20
-31.1
42
0.4142136
0
VERTEX
8
0
10
335.9
20
-31.5
0
SEQEND
0
POLYLINE
8
0
6
CONTINUOUS
66
1
70
1
0
VERTEX
8
0
10
359.7125
20
-44.7
42
0.4142136
0
VERTEX
8
0
10
360.1125
20
-45.1
0
VERTEX
8
0
10
373.3125
20
-45.1
42
0.4142136
0
VERTEX
8
0
10
373.7125
20
-44.7
0
VERTEX
8
0
10
373.7125
20
-31.5
42
0.4142136
0
VERTEX
8
0
10
373.3125
20
-31.1
0
VERTEX
8
0
10
360.1125
20
-31.1
42
0.4142136
0
VERTEX
8
0
10
359.7125
20
-31.5
0
SEQEND
0
POLYLINE
8
0
6
CONTINUOUS
66
1
70
1
0
VERTEX
8
0
10
-30.8125
20
-63.75
42
0.4142136
0
VERTEX
8
0
10
-30.4125
20
-64.15
0
VERTEX
8
0
10
-17.2125
20
-64.15
42
0.4142136
0
VERTEX
8
0
10
-16.8125
20
-63.75
0
VERTEX
8
0
10
-16.8125
20
-50.55
42
0.4142136
0
VERTEX
8
0
10
-17.2125
20
-50.15
0
VERTEX
8
0
10
-30.4125
20
-50.15
42
0.4142136
0
VERTEX
8
0
10
-30.8125
20
-50.55
0
SEQEND
0
POLYLINE
8
0
6
CONTINUOUS
66
1
70
1
0
VERTEX
8
0
10
-7
20
-63.75
42
0.4142136
0
VERTEX
8
0
10
-6.6
20
-64.15
0
VERTEX
8
0
10
6.6
20
-64.15
42
0.4142136
0
VERTEX
8
0
10
7
20
-63.75
0
VERTEX
8
0
10
7
20
-50.55
42
0.4142136
0
VERTEX
8
0
10
6.6
20
-50.15
0
VERTEX
8
0
10
-6.6
20
-50.15
42
0.4142136
0
VERTEX
8
0
10
-7
20
-50.55
0
SEQEND
0
POLYLINE
8
0
6
CONTINUOUS
66
1
70
1
0
VERTEX
8
0
10
12.05
20
-63.75
42
0.4142136
0
VERTEX
8
0
10
12.45
20
-64.15
0
VERTEX
8
0
10
25.65
20
-64.15
42
0.4142136
0
VERTEX
8
0
10
26.05
20
-63.75
0
VERTEX
8
0
10
26.05
20
-50.55
42
0.4142136
0
VERTEX
8
0
10
25.65
20
-50.15
0
VERTEX
8
0
10
12.45
20
-50.15
42
0.4142136
0
VERTEX
8
0
10
12.05
20
-50.55
0
SEQEND
0
POLYLINE
8
0
6
CONTINUOUS
66
1
70
1
0
VERTEX
8
0
10
31.1
20
-63.75
42
0.4142136
0
VERTEX
8
0
10
31.5
20
-64.15
0
VERTEX
8
0
10
44.7
20
-64.15
42
0.4142136
0
VERTEX
8
0
10
45.1
20
-63.75
0
VERTEX
8
0
10
45.1
20
-50.55
42
0.4142136
0
VERTEX
8
0
10
44.7
20
-50.15
0
VERTEX
8
0
10
31.5
20
-50.15
42
0.4142136
0
VERTEX
8
0
10
31.1
20
-50.55
0
SEQEND
0
POLYLINE
8
0
6
CONTINUOUS
66
1
70
1
0
VERTEX
8
0
10
50.15
20
-63.75
42
0.4142136
0
VERTEX
8
0
10
50.55
20
-64.15
0
VERTEX
8
0
10
63.75
20
-64.15
42
0.4142136
0
VERTEX
8
0
10
64.15
20
-63.75
0
VERTEX
8
0
10
64.15
20
-50.55
42
0.4142136
0
VERTEX
8
0
10
63.75
20
-50.15
0
VERTEX
8
0
10
50.55
20
-50.15
42
0.4142136
0
VERTEX
8
0
10
50.15
20
-50.55
0
SEQEND
0
POLYLINE
8
0
6
CONTINUOUS
66
1
70
1
0
VERTEX
8
0
10
69.2
20
-63.75
42
0.4142136
0
VERTEX
8
0
10
69.6
20
-64.15
0
VERTEX
8
0
10
82.8
20
-64.15
42
0.4142136
0
VERTEX
8
0
10
83.2
20
-63.75
0
VERTEX
8
0
10
83.2
20
-50.55
42
0.4142136
0
VERTEX
8
0
10
82.8
20
-50.15
0
VERTEX
8
0
10
69.6
20
-50.15
42
0.4142136
0
VERTEX
8
0
10
69.2
20
-50.55
0
SEQEND
0
POLYLINE
8
0
6
CONTINUOUS
66
1
70
1
0
VERTEX
8
0
10
88.25
20
-63.75
42
0.4142136
0
VERTEX
8
0
10
88.65
20
-64.15
0
VERTEX
8
0
10
101.85
20
-64.15
42
0.4142136
0
VERTEX
8
0
10
102.25
20
-63.75
0
VERTEX
8
0
10
102.25
20
-50.55
42
0.4142136
0
VERTEX
8
0
10
101.85
20
-50.15
0
VERTEX
8
0
10
88.65
20
-50.15
42
0.4142136
0
VERTEX
8
0
10
88.25
20
-50.55
0
SEQEND
0
POLYLINE
8
0
6
CONTINUOUS
66
1
70
1
0
VERTEX
8
0
10
240.65
20
-63.75
42
0.4142136
0
VERTEX
8
0
10
241.05
20
-64.15
0
VERTEX
8
0
10
254.25
20
-64.15
42
0.4142136
0
VERTEX
8
0
10
254.65
20
-63.75
0
VERTEX
8
0
10
254.65
20
-50.55
42
0.4142136
0
VERTEX
8
0
10
254.25
20
-50.15
0
VERTEX
8
0
10
241.05
20
-50.15
42
0.4142136
0
VERTEX
8
0
10
240.65
20
-50.55
0
SEQEND
0
POLYLINE
8
0
6
CONTINUOUS
66
1
70
1
0
VERTEX
8
0
10
259.7
20
-63.75
42
0.4142136
0
VERTEX
8
0
10
260.1
20
-64.15
0
VERTEX
8
0
10
273.3
20
-64.15
42
0.4142136
0
VERTEX
8
0
10
273.7
20
-63.75
0
VERTEX
8
0
10
273.7
20
-50.55
42
0.4142136
0
VERTEX
8
0
10
273.3
20
-50.15
0
VERTEX
8
0
10
260.1
20
-50.15
42
0.4142136
0
VERTEX
8
0
10
259.7
20
-50.55
0
SEQEND
0
POLYLINE
8
0
6
CONTINUOUS
66
1
70
1
0
VERTEX
8
0
10
278.75
20
-63.75
42
0.4142136
0
VERTEX
8
0
10
279.15
20
-64.15
0
VERTEX
8
0
10
292.35
20
-64.15
42
0.4142136
0
VERTEX
8
0
10
292.75
20
-63.75
0
VERTEX
8
0
10
292.75
20
-50.55
42
0.4142136
0
VERTEX
8
0
10
292.35
20
-50.15
0
VERTEX
8
0
10
279.15
20
-50.15
42
0.4142136
0
VERTEX
8
0
10
278.75
20
-50.55
0
SEQEND
0
POLYLINE
8
0
6
CONTINUOUS
66
1
70
1
0
VERTEX
8
0
10
297.8
20
-63.75
42
0.4142136
0
VERTEX
8
0
10
298.2
20
-64.15
0
VERTEX
8
0
10
311.4
20
-64.15
42
0.4142136
0
VERTEX
8
0
10
311.8
20
-63.75
0
VERTEX
8
0
10
311.8
20
-50.55
42
0.4142136
0
VERTEX
8
0
10
311.4
20
-50.15
0
VERTEX
8
0
10
298.2
20
-50.15
42
0.4142136
0
VERTEX
8
0
10
297.8
20
-50.55
0
SEQEND
0
POLYLINE
8
0
6
CONTINUOUS
66
1
70
1
0
VERTEX
8
0
10
316.85
20
-63.75
42
0.4142136
0
VERTEX
8
0
10
317.25
20
-64.15
0
VERTEX
8
0
10
330.45
20
-64.15
42
0.4142136
0
VERTEX
8
0
10
330.85
20
-63.75
0
VERTEX
8
0
10
330.85
20
-50.55
42
0.4142136
0
VERTEX
8
0
10
330.45
20
-50.15
0
VERTEX
8
0
10
317.25
20
-50.15
42
0.4142136
0
VERTEX
8
0
10
316.85
20
-50.55
0
SEQEND
0
POLYLINE
8
0
6
CONTINUOUS
66
1
70
1
0
VERTEX
8
0
10
335.9
20
-63.75
42
0.4142136
0
VERTEX
8
0
10
336.3
20
-64.15
0
VERTEX
8
0
10
349.5
20
-64.15
42
0.4142136
0
VERTEX
8
0
10
349.9
20
-63.75
0
VERTEX
8
0
10
349.9
20
-50.55
42
0.4142136
0
VERTEX
8
0
10
349.5
20
-50.15
0
VERTEX
8
0
10
336.3
20
-50.15
42
0.4142136
0
VERTEX
8
0
10
335.9
20
-50.55
0
SEQEND
0
POLYLINE
8
0
6
CONTINUOUS
66
1
70
1
0
VERTEX
8
0
10
359.7125
20
-63.75
42
0.4142136
0
VERTEX
8
0
10
360.1125
20
-64.15
0
VERTEX
8
0
10
373.3125
20
-64.15
42
0.4142136
0
VERTEX
8
0
10
373.7125
20
-63.75
0
VERTEX
8
0
10
373.7125
20
-50.55
42
0.4142136
0
VERTEX
8
0
10
373.3125
20
-50.15
0
VERTEX
8
0
10
360.1125
20
-50.15
42
0.4142136
0
VERTEX
8
0
10
359.7125
20
-50.55
0
SEQEND
0
POLYLINE
8
0
6
CONTINUOUS
66
1
70
1
0
VERTEX
8
0
10
-30.8125
20
-82.8
42
0.4142136
0
VERTEX
8
0
10
-30.4125
20
-83.2
0
VERTEX
8
0
10
-17.2125
20
-83.2
42
0.4142136
0
VERTEX
8
0
10
-16.8125
20
-82.8
0
VERTEX
8
0
10
-16.8125
20
-69.6
42
0.4142136
0
VERTEX
8
0
10
-17.2125
20
-69.2
0
VERTEX
8
0
10
-30.4125
20
-69.2
42
0.4142136
0
VERTEX
8
0
10
-30.8125
20
-69.6
0
SEQEND
0
POLYLINE
8
0
6
CONTINUOUS
66
1
70
1
0
VERTEX
8
0
10
-7
20
-82.8
42
0.4142136
0
VERTEX
8
0
10
-6.6
20
-83.2
0
VERTEX
8
0
10
6.6
20
-83.2
42
0.4142136
0
VERTEX
8
0
10
7
20
-82.8
0
VERTEX
8
0
10
7
20
-69.6
42
0.4142136
0
VERTEX
8
0
10
6.6
20
-69.2
0
VERTEX
8
0
10
-6.6
20
-69.2
42
0.4142136
0
VERTEX
8
0
10
-7
20
-69.6
0
SEQEND
0
POLYLINE
8
0
6
CONTINUOUS
66
1
70
1
0
VERTEX
8
0
10
12.05
20
-82.8
42
0.4142136
0
VERTEX
8
0
10
12.45
20
-83.2
0
VERTEX
8
0
10
25.65
20
-83.2
42
0.4142136
0
VERTEX
8
0
10
26.05
20
-82.8
0
VERTEX
8
0
10
26.05
20
-69.6
42
0.4142136
0
VERTEX
8
0
10
25.65
20
-69.2
0
VERTEX
8
0
10
12.45
20
-69.2
42
0.4142136
0
VERTEX
8
0
10
12.05
20
-69.6
0
SEQEND
0
POLYLINE
8
0
6
CONTINUOUS
66
1
70
1
0
VERTEX
8
0
10
31.1
20
-82.8
42
0.4142136
0
VERTEX
8
0
10
31.5
20
-83.2
0
VERTEX
8
0
10
44.7
20
-83.2
42
0.4142136
0
VERTEX
8
0
10
45.1
20
-82.8
0
VERTEX
8
0
10
45.1
20
-69.6
42
0.4142136
0
VERTEX
8
0
10
44.7
20
-69.2
0
VERTEX
8
0
10
31.5
20
-69.2
42
0.4142136
0
VERTEX
8
0
10
31.1
20
-69.6
0
SEQEND
0
POLYLINE
8
0
6
CONTINUOUS
66
1
70
1
0
VERTEX
8
0
10
50.15
20
-82.8
42
0.4142136
0
VERTEX
8
0
10
50.55
20
-83.2
0
VERTEX
8
0
10
63.75
20
-83.2
42
0.4142136
0
VERTEX
8
0
10
64.15
20
-82.8
0
VERTEX
8
0
10
64.15
20
-69.6
42
0.4142136
0
VERTEX
8
0
10
63.75
20
-69.2
0
VERTEX
8
0
10
50.55
20
-69.2
42
0.4142136
0
VERTEX
8
0
10
50.15
20
-69.6
0
SEQEND
0
POLYLINE
8
0
6
CONTINUOUS
66
1
70
1
0
VERTEX
8
0
10
69.2
20
-82.8
42
0.4142136
0
VERTEX
8
0
10
69.6
20
-83.2
0
VERTEX
8
0
10
82.8
20
-83.2
42
0.4142136
0
VERTEX
8
0
10
83.2
20
-82.8
0
VERTEX
8
0
10
83.2
20
-69.6
42
0.4142136
0
VERTEX
8
0
10
82.8
20
-69.2
0
VERTEX
8
0
10
69.6
20
-69.2
42
0.4142136
0
VERTEX
8
0
10
69.2
20
-69.6
0
SEQEND
0
POLYLINE
8
0
6
CONTINUOUS
66
1
70
1
0
VERTEX
8
0
10
88.25
20
-82.8
42
0.4142136
0
VERTEX
8
0
10
88.65
20
-83.2
0
VERTEX
8
0
10
101.85
20
-83.2
42
0.4142136
0
VERTEX
8
0
10
102.25
20
-82.8
0
VERTEX
8
0
10
102.25
20
-69.6
42
0.4142136
0
VERTEX
8
0
10
101.85
20
-69.2
0
VERTEX
8
0
10
88.65
20
-69.2
42
0.4142136
0
VERTEX
8
0
10
88.25
20
-69.6
0
SEQEND
0
POLYLINE
8
0
6
CONTINUOUS
66
1
70
1
0
VERTEX
8
0
10
240.65
20
-82.8
42
0.4142136
0
VERTEX
8
0
10
241.05
20
-83.2
0
VERTEX
8
0
10
254.25
20
-83.2
42
0.4142136
0
VERTEX
8
0
10
254.65
20
-82.8
0
VERTEX
8
0
10
254.65
20
-69.6
42
0.4142136
0
VERTEX
8
0
10
254.25
20
-69.2
0
VERTEX
8
0
10
241.05
20
-69.2
42
0.4142136
0
VERTEX
8
0
10
240.65
20
-69.6
0
SEQEND
0
POLYLINE
8
0
6
CONTINUOUS
66
1
70
1
0
VERTEX
8
0
10
259.7
20
-82.8
42
0.4142136
0
VERTEX
8
0
10
260.1
20
-83.2
0
VERTEX
8
0
10
273.3
20
-83.2
42
0.4142136
0
VERTEX
8
0
10
273.7
20
-82.8
0
VERTEX
8
0
10
273.7
20
-69.6
42
0.4142136
0
VERTEX
8
0
10
273.3
20
-69.2
0
VERTEX
8
0
10
260.1
20
-69.2
42
0.4142136
0
VERTEX
8
0
10
259.7
20
-69.6
0
SEQEND
0
POLYLINE
8
0
6
CONTINUOUS
66
1
70
1
0
VERTEX
8
0
10
278.75
20
-82.8
42
0.4142136
0
VERTEX
8
0
10
279.15
20
-83.2
0
VERTEX
8
0
10
292.35
20
-83.2
42
0.4142136
0
VERTEX
8
0
10
292.75
20
-82.8
0
VERTEX
8
0
10
292.75
20
-69.6
42
0.4142136
0
VERTEX
8
0
10
292.35
20
-69.2
0
VERTEX
8
0
10
279.15
20
-69.2
42
0.4142136
0
VERTEX
8
0
10
278.75
20
-69.6
0
SEQEND
0
POLYLINE
8
0
6
CONTINUOUS
66
1
70
1
0
VERTEX
8
0
10
297.8
20
-82.8
42
0.4142136
0
VERTEX
8
0
10
298.2
20
-83.2
0
VERTEX
8
0
10
311.4
20
-83.2
42
0.4142136
0
VERTEX
8
0
10
311.8
20
-82.8
0
VERTEX
8
0
10
311.8
20
-69.6
42
0.4142136
0
VERTEX
8
0
10
311.4
20
-69.2
0
VERTEX
8
0
10
298.2
20
-69.2
42
0.4142136
0
VERTEX
8
0
10
297.8
20
-69.6
0
SEQEND
0
POLYLINE
8
0
6
CONTINUOUS
66
1
70
1
0
VERTEX
8
0
10
316.85
20
-82.8
42
0.4142136
0
VERTEX
8
0
10
317.25
20
-83.2
0
VERTEX
8
0
10
330.45
20
-83.2
42
0.4142136
0
VERTEX
8
0
10
330.85
20
-82.8
0
VERTEX
8
0
10
330.85
20
-69.6
42
0.4142136
0
VERTEX
8
0
10
330.45
20
-69.2
0
VERTEX
8
0
10
317.25
20
-69.2
42
0.4142136
0
VERTEX
8
0
10
316.85
20
-69.6
0
SEQEND
0
POLYLINE
8
0
6
CONTINUOUS
66
1
70
1
0
VERTEX
8
0
10
335.9
20
-82.8
42
0.4142136
0
VERTEX
8
0
10
336.3
20
-83.2
0
VERTEX
8
0
10
349.5
20
-83.2
42
0.4142136
0
VERTEX
8
0
10
349.9
20
-82.8
0
VERTEX
8
0
10
349.9
20
-69.6
42
0.4142136
0
VERTEX
8
0
10
349.5
20
-69.2
0
VERTEX
8
0
10
336.3
20
-69.2
42
0.4142136
0
VERTEX
8
0
10
335.9
20
-69.6
0
SEQEND
0
POLYLINE
8
0
6
CONTINUOUS
66
1
70
1
0
VERTEX
8
0
10
359.7125
20
-82.8
42
0.4142136
0
VERTEX
8
0
10
360.1125
20
-83.2
0
VERTEX
8
0
10
373.3125
20
-83.2
42
0.4142136
0
VERTEX
8
0
10
373.7125
20
-82.8
0
VERTEX
8
0
10
373.7125
20
-69.6
42
0.4142136
0
VERTEX
8
0
10
373.3125
20
-69.2
0
VERTEX
8
0
10
360.1125
20
-69.2
42
0.4142136
0
VERTEX
8
0
10
359.7125
20
-69.6
0
SEQEND
0
POLYLINE
8
0
6
CONTINUOUS
66
1
70
1
0
VERTEX
8
0
10
125.2644823
20
-115.0791079
42
0.4142136
0
VERTEX
8
0
10
125.447495
20
-115.7621206
0
VERTEX
8
0
10
130.6436474
20
-118.7621206
42
0.4142136
0
VERTEX
8
0
10
131.3266601
20
-118.5791079
0
VERTEX
8
0
10
138.3266601
20
-106.4547523
42
0.4142136
0
VERTEX
8
0
10
138.1436474
20
-105.7717396
0
VERTEX
8
0
10
132.947495
20
-102.7717396
42
0.4142136
0
VERTEX
8
0
10
132.2644823
20
-102.9547523
0
SEQEND
0
POLYLINE
8
0
6
CONTINUOUS
66
1
70
1
0
VERTEX
8
0
10
71.592568
20
-117.0155903
42
0.4142136
0
VERTEX
8
0
10
70.9095553
20
-117.198603
0
VERTEX
8
0
10
67.9095553
20
-122.3947554
42
0.4142136
0
VERTEX
8
0
10
68.092568
20
-123.0777681
0
VERTEX
8
0
10
80.2169236
20
-130.0777681
42
0.4142136
0
VERTEX
8
0
10
80.8999363
20
-129.8947554
0
VERTEX
8
0
10
83.8999363
20
-124.698603
42
0.4142136
0
VERTEX
8
0
10
83.7169236
20
-124.0155903
0
SEQEND
0
POLYLINE
8
0
6
CONTINUOUS
66
1
70
1
0
VERTEX
8
0
10
88.090352
20
-126.5405903
42
0.4142136
0
VERTEX
8
0
10
87.4073393
20
-126.723603
0
VERTEX
8
0
10
84.4073393
20
-131.9197554
42
0.4142136
0
VERTEX
8
0
10
84.590352
20
-132.6027681
0
VERTEX
8
0
10
96.7147076
20
-139.6027681
42
0.4142136
0
VERTEX
8
0
10
97.3977203
20
-139.4197554
0
VERTEX
8
0
10
100.3977203
20
-134.223603
42
0.4142136
0
VERTEX
8
0
10
100.2147076
20
-133.5405903
0
SEQEND
0
POLYLINE
8
0
6
CONTINUOUS
66
1
70
1
0
VERTEX
8
0
10
104.5881359
20
-136.0655903
42
0.4142136
0
VERTEX
8
0
10
103.9051232
20
-136.248603
0
VERTEX
8
0
10
100.9051232
20
-141.4447554
42
0.4142136
0
VERTEX
8
0
10
101.0881359
20
-142.1277681
0
VERTEX
8
0
10
113.2124915
20
-149.1277681
42
0.4142136
0
VERTEX
8
0
10
113.8955042
20
-148.9447554
0
VERTEX
8
0
10
116.8955042
20
-143.748603
42
0.4142136
0
VERTEX
8
0
10
116.7124915
20
-143.0655903
0
SEQEND
0
POLYLINE
8
0
6
CONTINUOUS
66
1
70
1
0
VERTEX
8
0
10
104.5872597
20
-103.1411079
42
0.4142136
0
VERTEX
8
0
10
104.7702724
20
-103.8241206
0
VERTEX
8
0
10
109.9664248
20
-106.8241206
42
0.4142136
0
VERTEX
8
0
10
110.6494375
20
-106.6411079
0
VERTEX
8
0
10
117.6494375
20
-94.5167523
42
0.4142136
0
VERTEX
8
0
10
117.4664248
20
-93.8337396
0
VERTEX
8
0
10
112.2702724
20
-90.8337396
42
0.4142136
0
VERTEX
8
0
10
111.5872597
20
-91.0167523
0
SEQEND
0
POLYLINE
8
0
6
CONTINUOUS
66
1
70
1
0
VERTEX
8
0
10
211.5733399
20
-118.5791079
42
0.4142136
0
VERTEX
8
0
10
212.2563526
20
-118.7621206
0
VERTEX
8
0
10
217.452505
20
-115.7621206
42
0.4142136
0
VERTEX
8
0
10
217.6355177
20
-115.0791079
0
VERTEX
8
0
10
210.6355177
20
-102.9547523
42
0.4142136
0
VERTEX
8
0
10
209.952505
20
-102.7717396
0
VERTEX
8
0
10
204.7563526
20
-105.7717396
42
0.4142136
0
VERTEX
8
0
10
204.5733399
20
-106.4547523
0
SEQEND
0
POLYLINE
8
0
6
CONTINUOUS
66
1
70
1
0
VERTEX
8
0
10
232.2505625
20
-106.6411079
42
0.4142136
0
VERTEX
8
0
10
232.9335752
20
-106.8241206
0
VERTEX
8
0
10
238.1297276
20
-103.8241206
42
0.4142136
0
VERTEX
8
0
10
238.3127403
20
-103.1411079
0
VERTEX
8
0
10
231.3127403
20
-91.0167523
42
0.4142136
0
VERTEX
8
0
10
230.6297276
20
-90.8337396
0
VERTEX
8
0
10
225.4335752
20
-93.8337396
42
0.4142136
0
VERTEX
8
0
10
225.2505625
20
-94.5167523
0
SEQEND
0
POLYLINE
8
0
6
CONTINUOUS
66
1
70
1
0
VERTEX
8
0
10
211.6514323
20
-123.8883677
42
0.4142136
0
VERTEX
8
0
10
211.4684196
20
-124.5713804
0
VERTEX
8
0
10
214.4684196
20
-129.7675328
42
0.4142136
0
VERTEX
8
0
10
215.1514323
20
-129.9505455
0
VERTEX
8
0
10
227.2757879
20
-122.9505455
42
0.4142136
0
VERTEX
8
0
10
227.4588006
20
-122.2675328
0
VERTEX
8
0
10
224.4588006
20
-117.0713804
42
0.4142136
0
VERTEX
8
0
10
223.7757879
20
-116.8883677
0
SEQEND
0
POLYLINE
8
0
6
CONTINUOUS
66
1
70
1
0
VERTEX
8
0
10
223.5894323
20
-144.5655903
42
0.4142136
0
VERTEX
8
0
10
223.4064196
20
-145.248603
0
VERTEX
8
0
10
226.4064196
20
-150.4447554
42
0.4142136
0
VERTEX
8
0
10
227.0894323
20
-150.6277681
0
VERTEX
8
0
10
239.2137879
20
-143.6277681
42
0.4142136
0
VERTEX
8
0
10
239.3968006
20
-142.9447554
0
VERTEX
8
0
10
236.3968006
20
-137.748603
42
0.4142136
0
VERTEX
8
0
10
235.7137879
20
-137.5655903
0
SEQEND
0
POLYLINE
8
0
6
CONTINUOUS
66
1
70
1
0
VERTEX
8
0
10
228.1492162
20
-114.3633677
42
0.4142136
0
VERTEX
8
0
10
227.9662035
20
-115.0463804
0
VERTEX
8
0
10
230.9662035
20
-120.2425328
42
0.4142136
0
VERTEX
8
0
10
231.6492162
20
-120.4255455
0
VERTEX
8
0
10
243.7735718
20
-113.4255455
42
0.4142136
0
VERTEX
8
0
10
243.9565845
20
-112.7425328
0
VERTEX
8
0
10
240.9565845
20
-107.5463804
42
0.4142136
0
VERTEX
8
0
10
240.2735718
20
-107.3633677
0
SEQEND
0
POLYLINE
8
0
6
CONTINUOUS
66
1
70
1
0
VERTEX
8
0
10
240.0872162
20
-135.0405903
42
0.4142136
0
VERTEX
8
0
10
239.9042035
20
-135.723603
0
VERTEX
8
0
10
242.9042035
20
-140.9197554
42
0.4142136
0
VERTEX
8
0
10
243.5872162
20
-141.1027681
0
VERTEX
8
0
10
255.7115718
20
-134.1027681
42
0.4142136
0
VERTEX
8
0
10
255.8945845
20
-133.4197554
0
VERTEX
8
0
10
252.8945845
20
-128.223603
42
0.4142136
0
VERTEX
8
0
10
252.2115718
20
-128.0405903
0
SEQEND
0
POLYLINE
8
0
6
CONTINUOUS
66
1
70
1
0
VERTEX
8
0
10
244.6470002
20
-104.8383677
42
0.4142136
0
VERTEX
8
0
10
244.4639875
20
-105.5213804
0
VERTEX
8
0
10
247.4639875
20
-110.7175328
42
0.4142136
0
VERTEX
8
0
10
248.1470002
20
-110.9005455
0
VERTEX
8
0
10
260.2713558
20
-103.9005455
42
0.4142136
0
VERTEX
8
0
10
260.4543685
20
-103.2175328
0
VERTEX
8
0
10
257.4543685
20
-98.0213804
42
0.4142136
0
VERTEX
8
0
10
256.7713558
20
-97.8383677
0
SEQEND
0
POLYLINE
8
0
6
CONTINUOUS
66
1
70
1
0
VERTEX
8
0
10
256.5850002
20
-125.5155903
42
0.4142136
0
VERTEX
8
0
10
256.4019875
20
-126.198603
0
VERTEX
8
0
10
259.4019875
20
-131.3947554
42
0.4142136
0
VERTEX
8
0
10
260.0850002
20
-131.5777681
0
VERTEX
8
0
10
272.2093558
20
-124.5777681
42
0.4142136
0
VERTEX
8
0
10
272.3923685
20
-123.8947554
0
VERTEX
8
0
10
269.3923685
20
-118.698603
42
0.4142136
0
VERTEX
8
0
10
268.7093558
20
-118.5155903
0
SEQEND
0
POLYLINE
8
0
6
CONTINUOUS
66
1
70
1
0
VERTEX
8
0
10
83.530568
20
-96.3383677
42
0.4142136
0
VERTEX
8
0
10
82.8475553
20
-96.5213804
0
VERTEX
8
0
10
79.8475553
20
-101.7175328
42
0.4142136
0
VERTEX
8
0
10
80.030568
20
-102.4005455
0
VERTEX
8
0
10
92.1549236
20
-109.4005455
42
0.4142136
0
VERTEX
8
0
10
92.8379363
20
-109.2175328
0
VERTEX
8
0
10
95.8379363
20
-104.0213804
42
0.4142136
0
VERTEX
8
0
10
95.6549236
20
-103.3383677
0
SEQEND
0
POLYLINE
8
0
6
CONTINUOUS
66
1
70
1
0
VERTEX
8
0
10
100.028352
20
-105.8633677
42
0.4142136
0
VERTEX
8
0
10
99.3453393
20
-106.0463804
0
VERTEX
8
0
10
96.3453393
20
-111.2425328
42
0.4142136
0
VERTEX
8
0
10
96.528352
20
-111.9255455
0
VERTEX
8
0
10
108.6527076
20
-118.9255455
42
0.4142136
0
VERTEX
8
0
10
109.3357203
20
-118.7425328
0
VERTEX
8
0
10
112.3357203
20
-113.5463804
42
0.4142136
0
VERTEX
8
0
10
112.1527076
20
-112.8633677
0
SEQEND
0
POLYLINE
8
0
6
CONTINUOUS
66
1
70
1
0
VERTEX
8
0
10
116.5261359
20
-115.3883677
42
0.4142136
0
VERTEX
8
0
10
115.8431232
20
-115.5713804
0
VERTEX
8
0
10
112.8431232
20
-120.7675328
42
0.4142136
0
VERTEX
8
0
10
113.0261359
20
-121.4505455
0
VERTEX
8
0
10
125.1504915
20
-128.4505455
42
0.4142136
0
VERTEX
8
0
10
125.8335042
20
-128.2675328
0
VERTEX
8
0
10
128.8335042
20
-123.0713804
42
0.4142136
0
VERTEX
8
0
10
128.6504915
20
-122.3883677
0
SEQEND
0
POLYLINE
8
outline
6
CONTINUOUS
66
1
70
1
0
VERTEX
8
outline
10
-15.5
20
17
42
0.4142136
0
VERTEX
8
outline
10
-17
20
15.5
0
VERTEX
8
outline
10
-17
20
-0.55
42
-0.4142136
0
VERTEX
8
outline
10
-18.5
20
-2.05
0
VERTEX
8
outline
10
-44.075
20
-2.05
42
0.4142136
0
VERTEX
8
outline
10
-45.575
20
-3.55
0
VERTEX
8
outline
10
-45.575
20
-21.1
0
VERTEX
8
outline
10
-45.575
20
-36.05
0
VERTEX
8
outline
10
-45.575
20
-40.15
0
VERTEX
8
outline
10
-45.575
20
-55.1
0
VERTEX
8
outline
10
-45.575
20
-59.2
0
VERTEX
8
outline
10
-45.575
20
-74.15
0
VERTEX
8
outline
10
-45.575
20
-91.7
42
0.4142136
0
VERTEX
8
outline
10
-44.075
20
-93.2
0
VERTEX
8
outline
10
-17
20
-93.2
0
VERTEX
8
outline
10
-2.05
20
-93.2
0
VERTEX
8
outline
10
2.05
20
-93.2
0
VERTEX
8
outline
10
17
20
-93.2
0
VERTEX
8
outline
10
21.1
20
-93.2
0
VERTEX
8
outline
10
36.05
20
-93.2
0
VERTEX
8
outline
10
40.15
20
-93.2
0
VERTEX
8
outline
10
55.1
20
-93.2
0
VERTEX
8
outline
10
59.2
20
-93.2
0
VERTEX
8
outline
10
74.15
20
-93.2
0
VERTEX
8
outline
10
75.5275508
20
-93.2
0
VERTEX
8
outline
10
55.937852
20
-127.1303536
42
0.4142136
0
VERTEX
8
outline
10
56.4868901
20
-129.1793917
0
VERTEX
8
outline
10
71.685636
20
-137.9543917
0
VERTEX
8
outline
10
84.6327158
20
-145.4293917
0
VERTEX
8
outline
10
88.1834199
20
-147.4793917
0
VERTEX
8
outline
10
101.1304998
20
-154.9543917
0
VERTEX
8
outline
10
116.3292456
20
-163.7293917
42
0.4142136
0
VERTEX
8
outline
10
118.3782837
20
-163.1803536
0
VERTEX
8
outline
10
136.6782837
20
-131.4838239
0
VERTEX
8
outline
10
144.1532837
20
-118.5367441
0
VERTEX
8
outline
10
152.9282837
20
-103.3379982
42
0.4142136
0
VERTEX
8
outline
10
152.3792456
20
-101.2889601
0
VERTEX
8
outline
10
113
20
-78.553342
42
-0.2679492
0
VERTEX
8
outline
10
112.25
20
-77.2543039
0
VERTEX
8
outline
10
112.25
20
-74.15
0
VERTEX
8
outline
10
112.25
20
-59.2
0
VERTEX
8
outline
10
112.25
20
-55.1
0
VERTEX
8
outline
10
112.25
20
-40.15
0
VERTEX
8
outline
10
112.25
20
-36.05
0
VERTEX
8
outline
10
112.25
20
-21.1
0
VERTEX
8
outline
10
112.25
20
-17
0
VERTEX
8
outline
10
112.25
20
-2.05
0
VERTEX
8
outline
10
112.25
20
15.5
42
0.4142136
0
VERTEX
8
outline
10
110.75
20
17
0
VERTEX
8
outline
10
93.2
20
17
0
VERTEX
8
outline
10
78.25
20
17
0
VERTEX
8
outline
10
74.15
20
17
0
VERTEX
8
outline
10
59.2
20
17
0
VERTEX
8
outline
10
55.1
20
17
0
VERTEX
8
outline
10
40.15
20
17
0
VERTEX
8
outline
10
36.05
20
17
0
VERTEX
8
outline
10
21.1
20
17
0
VERTEX
8
outline
10
17
20
17
0
VERTEX
8
outline
10
2.05
20
17
0
SEQEND
0
POLYLINE
8
outline
6
CONTINUOUS
66
1
70
1
0
VERTEX
8
outline
10
232.15
20
17
42
0.4142136
0
VERTEX
8
outline
10
230.65
20
15.5
0
VERTEX
8
outline
10
230.65
20
-2.05
0
VERTEX
8
outline
10
230.65
20
-17
0
VERTEX
8
outline
10
230.65
20
-21.1
0
VERTEX
8
outline
10
230.65
20
-36.05
0
VERTEX
8
outline
10
230.65
20
-40.15
0
VERTEX
8
outline
10
230.65
20
-55.1
0
VERTEX
8
outline
10
230.65
20
-59.2
0
VERTEX
8
outline
10
230.65
20
-74.15
0
VERTEX
8
outline
10
230.65
20
-77.2543039
42
-0.2679492
0
VERTEX
8
outline
10
229.9
20
-78.553342
0
VERTEX
8
outline
10
190.5207544
20
-101.2889601
42
0.4142136
0
VERTEX
8
outline
10
189.9717163
20
-103.3379982
0
VERTEX
8
outline
10
198.7467163
20
-118.5367441
0
VERTEX
8
outline
10
206.2217163
20
-131.4838239
0
VERTEX
8
outline
10
224.5217163
20
-163.1803536
42
0.4142136
0
VERTEX
8
outline
10
226.5707544
20
-163.7293917
0
VERTEX
8
outline
10
241.7695002
20
-154.9543917
0
VERTEX
8
outline
10
254.7165801
20
-147.4793917
0
VERTEX
8
outline
10
258.2672842
20
-145.4293917
0
VERTEX
8
outline
10
271.214364
20
-137.9543917
0
VERTEX
8
outline
10
286.4131099
20
-129.1793917
42
0.4142136
0
VERTEX
8
outline
10
286.962148
20
-127.1303536
0
VERTEX
8
outline
10
267.3724492
20
-93.2
0
VERTEX
8
outline
10
268.75
20
-93.2
0
VERTEX
8
outline
10
283.7
20
-93.2
0
VERTEX
8
outline
10
287.8
20
-93.2
0
VERTEX
8
outline
10
302.75
20
-93.2
0
VERTEX
8
outline
10
306.85
20
-93.2
0
VERTEX
8
outline
10
321.8
20
-93.2
0
VERTEX
8
outline
10
325.9
20
-93.2
0
VERTEX
8
outline
10
340.85
20
-93.2
0
VERTEX
8
outline
10
344.95
20
-93.2
0
VERTEX
8
outline
10
359.9
20
-93.2
0
VERTEX
8
outline
10
386.975
20
-93.2
42
0.4142136
0
VERTEX
8
outline
10
388.475
20
-91.7
0
VERTEX
8
outline
10
388.475
20
-74.15
0
VERTEX
8
outline
10
388.475
20
-59.2
0
VERTEX
8
outline
10
388.475
20
-55.1
0
VERTEX
8
outline
10
388.475
20
-40.15
0
VERTEX
8
outline
10
388.475
20
-36.05
0
VERTEX
8
outline
10
388.475
20
-21.1
0
VERTEX
8
outline
10
388.475
20
-3.55
42
0.4142136
0
VERTEX
8
outline
10
386.975
20
-2.05
0
VERTEX
8
outline
10
361.4
20
-2.05
42
-0.4142136
0
VERTEX
8
outline
10
359.9
20
-0.55
0
VERTEX
8
outline
10
359.9
20
15.5
42
0.4142136
0
VERTEX
8
outline
10
358.4
20
17
0
VERTEX
8
outline
10
340.85
20
17
0
VERTEX
8
outline
10
325.9
20
17
0
VERTEX
8
outline
10
321.8
20
17
0
VERTEX
8
outline
10
306.85
20
17
0
VERTEX
8
outline
10
302.75
20
17
0
VERTEX
8
outline
10
287.8
20
17
0
VERTEX
8
outline
10
283.7
20
17
0
VERTEX
8
outline
10
268.75
20
17
0
VERTEX
8
outline
10
264.65
20
17
0
VERTEX
8
outline
10
249.7
20
17
0
SEQEND
0
ENDSEC
0
EOF