0
SECTION
2
HEADER
9
$INSUNITS
70
4
0
ENDSEC
0
SECTION
2
TABLES
0
TABLE
2
LTYPE
0
LTYPE
72
65
70
0
2
CONTINUOUS
3
______
73
0
40
0
0
LTYPE
72
65
70
0
2
DASHED
3
_ _ _ 
73
2
40
7.5
49
5
49
-2.5
0
LTYPE
72
65
70
0
2
DOTTED
3
. . . 
73
2
40
1.5
49
0.5
49
-1
0
ENDTAB
0
TABLE
2
LAYER
0
ENDTAB
0
ENDSEC
0
SECTION
2
ENTITIES
0
POLYLINE
8
0
6
CONTINUOUS
66
1
70
1
0
VERTEX
8
0
10
140.3607208
20
-76.5648467
42
0.4142136
0
VERTEX
8
0
10
140.7142742
20
-77.1772191
0
VERTEX
8
0
10
153.27131
20
-80.5418667
42
0.4142136
0
VERTEX
8
0
10
153.8836824
20
-80.1883133
0
VERTEX
8
0
10
157.24833
20
-67.6312775
42
0.4142136
0
VERTEX
8
0
10
156.8947766
20
-67.0189051
0
VERTEX
8
0
10
144.3377408
20
-63.6542575
42
0.4142136
0
VERTEX
8
0
10
143.7253684
20
-64.0078109
0
SEQEND
0
POLYLINE
8
0
6
CONTINUOUS
66
1
70
1
0
VERTEX
8
0
10
284.2663176
20
-80.1883133
42
0.4142136
0
VERTEX
8
0
10
284.87869
20
-80.5418667
0
VERTEX
8
0
10
297.4357258
20
-77.1772191
42
0.4142136
0
VERTEX
8
0
10
297.7892792
20
-76.5648467
0
VERTEX
8
0
10
294.4246316
20
-64.0078109
42
0.4142136
0
VERTEX
8
0
10
293.8122592
20
-63.6542575
0
VERTEX
8
0
10
281.2552234
20
-67.0189051
42
0.4142136
0
VERTEX
8
0
10
280.90167
20
-67.6312775
0
SEQEND
0
POLYLINE
8
0
6
CONTINUOUS
66
1
70
1
0
VERTEX
8
0
10
105.3636361
20
-96.770423
42
0.4142136
0
VERTEX
8
0
10
105.7171895
20
-97.3827954
0
VERTEX
8
0
10
118.2742253
20
-100.747443
42
0.4142136
0
VERTEX
8
0
10
118.8865977
20
-100.3938896
0
VERTEX
8
0
10
122.2512453
20
-87.8368538
42
0.4142136
0
VERTEX
8
0
10
121.8976919
20
-87.2244814
0
VERTEX
8
0
10
109.3406561
20
-83.8598338
42
0.4142136
0
VERTEX
8
0
10
108.7282837
20
-84.2133872
0
SEQEND
0
POLYLINE
8
0
6
CONTINUOUS
66
1
70
1
0
VERTEX
8
0
10
123.7645231
20
-101.7009258
42
0.4142136
0
VERTEX
8
0
10
124.1180765
20
-102.3132982
0
VERTEX
8
0
10
136.6751123
20
-105.6779458
42
0.4142136
0
VERTEX
8
0
10
137.2874847
20
-105.3243924
0
VERTEX
8
0
10
140.6521323
20
-92.7673566
42
0.4142136
0
VERTEX
8
0
10
140.2985789
20
-92.1549842
0
VERTEX
8
0
10
127.7415431
20
-88.7903366
42
0.4142136
0
VERTEX
8
0
10
127.1291707
20
-89.14389
0
SEQEND
0
POLYLINE
8
0
6
CONTINUOUS
66
1
70
1
0
VERTEX
8
0
10
142.1654101
20
-106.6314286
42
0.4142136
0
VERTEX
8
0
10
142.5189635
20
-107.243801
0
VERTEX
8
0
10
155.0759993
20
-110.6084486
42
0.4142136
0
VERTEX
8
0
10
155.6883717
20
-110.2548952
0
VERTEX
8
0
10
159.0530193
20
-97.6978594
42
0.4142136
0
VERTEX
8
0
10
158.6994659
20
-97.085487
0
VERTEX
8
0
10
146.1424301
20
-93.7208394
42
0.4142136
0
VERTEX
8
0
10
145.5300577
20
-94.0743928
0
SEQEND
0
POLYLINE
8
0
6
CONTINUOUS
66
1
70
1
0
VERTEX
8
0
10
282.4616283
20
-110.2548952
42
0.4142136
0
VERTEX
8
0
10
283.0740007
20
-110.6084486
0
VERTEX
8
0
10
295.6310365
20
-107.243801
42
0.4142136
0
VERTEX
8
0
10
295.9845899
20
-106.6314286
0
VERTEX
8
0
10
292.6199423
20
-94.0743928
42
0.4142136
0
VERTEX
8
0
10
292.0075699
20
-93.7208394
0
VERTEX
8
0
10
279.4505341
20
-97.085487
42
0.4142136
0
VERTEX
8
0
10
279.0969807
20
-97.6978594
0
SEQEND
0
POLYLINE
8
0
6
CONTINUOUS
66
1
70
1
0
VERTEX
8
0
10
300.8625153
20
-105.3243924
42
0.4142136
0
VERTEX
8
0
10
301.4748877
20
-105.6779458
0
VERTEX
8
0
10
314.0319235
20
-102.3132982
42
0.4142136
0
VERTEX
8
0
10
314.3854769
20
-101.7009258
0
VERTEX
8
0
10
311.0208293
20
-89.14389
42
0.4142136
0
VERTEX
8
0
10
310.4084569
20
-88.7903366
0
VERTEX
8
0
10
297.8514211
20
-92.1549842
42
0.4142136
0
VERTEX
8
0
10
297.4978677
20
-92.7673566
0
SEQEND
0
POLYLINE
8
0
6
CONTINUOUS
66
1
70
1
0
VERTEX
8
0
10
319.2634023
20
-100.3938896
42
0.4142136
0
VERTEX
8
0
10
319.8757747
20
-100.747443
0
VERTEX
8
0
10
332.4328105
20
-97.3827954
42
0.4142136
0
VERTEX
8
0
10
332.7863639
20
-96.770423
0
VERTEX
8
0
10
329.4217163
20
-84.2133872
42
0.4142136
0
VERTEX
8
0
10
328.8093439
20
-83.8598338
0
VERTEX
8
0
10
316.2523081
20
-87.2244814
42
0.4142136
0
VERTEX
8
0
10
315.8987547
20
-87.8368538
0
SEQEND
0
POLYLINE
8
0
6
CONTINUOUS
66
1
70
1
0
VERTEX
8
0
10
-7
20
-6.5
42
0.4142136
0
VERTEX
8
0
10
-6.5
20
-7
0
VERTEX
8
0
10
6.5
20
-7
42
0.4142136
0
VERTEX
8
0
10
7
20
-6.5
0
VERTEX
8
0
10
7
20
6.5
42
0.4142136
0
VERTEX
8
0
10
6.5
20
7
0
VERTEX
8
0
10
-6.5
20
7
42
0.4142136
0
VERTEX
8
0
10
-7
20
6.5
0
SEQEND
0
POLYLINE
8
0
6
CONTINUOUS
66
1
70
1
0
VERTEX
8
0
10
16.8125
20
-6.5
42
0.4142136
0
VERTEX
8
0
10
17.3125
20
-7
0
VERTEX
8
0
10
30.3125
20
-7
42
0.4142136
0
VERTEX
8
0
10
30.8125
20
-6.5
0
VERTEX
8
0
10
30.8125
20
6.5
42
0.4142136
0
VERTEX
8
0
10
30.3125
20
7
0
VERTEX
8
0
10
17.3125
20
7
42
0.4142136
0
VERTEX
8
0
10
16.8125
20
6.5
0
SEQEND
0
POLYLINE
8
0
6
CONTINUOUS
66
1
70
1
0
VERTEX
8
0
10
35.8625
20
-6.5
42
0.4142136
0
VERTEX
8
0
10
36.3625
20
-7
0
VERTEX
8
0
10
49.3625
20
-7
42
0.4142136
0
VERTEX
8
0
10
49.8625
20
-6.5
0
VERTEX
8
0
10
49.8625
20
6.5
42
0.4142136
0
VERTEX
8
0
10
49.3625
20
7
0
VERTEX
8
0
10
36.3625
20
7
42
0.4142136
0
VERTEX
8
0
10
35.8625
20
6.5
0
SEQEND
0
POLYLINE
8
0
6
CONTINUOUS
66
1
70
1
0
VERTEX
8
0
10
54.9125
20
-6.5
42
0.4142136
0
VERTEX
8
0
10
55.4125
20
-7
0
VERTEX
8
0
10
68.4125
20
-7
42
0.4142136
0
VERTEX
8
0
10
68.9125
20
-6.5
0
VERTEX
8
0
10
68.9125
20
6.5
42
0.4142136
0
VERTEX
8
0
10
68.4125
20
7
0
VERTEX
8
0
10
55.4125
20
7
42
0.4142136
0
VERTEX
8
0
10
54.9125
20
6.5
0
SEQEND
0
POLYLINE
8
0
6
CONTINUOUS
66
1
70
1
0
VERTEX
8
0
10
73.9625
20
-6.5
42
0.4142136
0
VERTEX
8
0
10
74.4625
20
-7
0
VERTEX
8
0
10
87.4625
20
-7
42
0.4142136
0
VERTEX
8
0
10
87.9625
20
-6.5
0
VERTEX
8
0
10
87.9625
20
6.5
42
0.4142136
0
VERTEX
8
0
10
87.4625
20
7
0
VERTEX
8
0
10
74.4625
20
7
42
0.4142136
0
VERTEX
8
0
10
73.9625
20
6.5
0
SEQEND
0
POLYLINE
8
0
6
CONTINUOUS
66
1
70
1
0
VERTEX
8
0
10
93.0125
20
-6.5
42
0.4142136
0
VERTEX
8
0
10
93.5125
20
-7
0
VERTEX
8
0
10
106.5125
20
-7
42
0.4142136
0
VERTEX
8
0
10
107.0125
20
-6.5
0
VERTEX
8
0
10
107.0125
20
6.5
42
0.4142136
0
VERTEX
8
0
10
106.5125
20
7
0
VERTEX
8
0
10
93.5125
20
7
42
0.4142136
0
VERTEX
8
0
10
93.0125
20
6.5
0
SEQEND
0
POLYLINE
8
0
6
CONTINUOUS
66
1
70
1
0
VERTEX
8
0
10
112.0625
20
-6.5
42
0.4142136
0
VERTEX
8
0
10
112.5625
20
-7
0
VERTEX
8
0
10
125.5625
20
-7
42
0.4142136
0
VERTEX
8
0
10
126.0625
20
-6.5
0
VERTEX
8
0
10
126.0625
20
6.5
42
0.4142136
0
VERTEX
8
0
10
125.5625
20
7
0
VERTEX
8
0
10
112.5625
20
7
42
0.4142136
0
VERTEX
8
0
10
112.0625
20
6.5
0
SEQEND
0
POLYLINE
8
0
6
CONTINUOUS
66
1
70
1
0
VERTEX
8
0
10
312.0875
20
-6.5
42
0.4142136
0
VERTEX
8
0
10
312.5875
20
-7
0
VERTEX
8
0
10
325.5875
20
-7
42
0.4142136
0
VERTEX
8
0
10
326.0875
20
-6.5
0
VERTEX
8
0
10
326.0875
20
6.5
42
0.4142136
0
VERTEX
8
0
10
325.5875
20
7
0
VERTEX
8
0
10
312.5875
20
7
42
0.4142136
0
VERTEX
8
0
10
312.0875
20
6.5
0
SEQEND
0
POLYLINE
8
0
6
CONTINUOUS
66
1
70
1
0
VERTEX
8
0
10
331.1375
20
-6.5
42
0.4142136
0
VERTEX
8
0
10
331.6375
20
-7
0
VERTEX
8
0
10
344.6375
20
-7
42
0.4142136
0
VERTEX
8
0
10
345.1375
20
-6.5
0
VERTEX
8
0
10
345.1375
20
6.5
42
0.4142136
0
VERTEX
8
0
10
344.6375
20
7
0
VERTEX
8
0
10
331.6375
20
7
42
0.4142136
0
VERTEX
8
0
10
331.1375
20
6.5
0
SEQEND
0
POLYLINE
8
0
6
CONTINUOUS
66
1
70
1
0
VERTEX
8
0
10
350.1875
20
-6.5
42
0.4142136
0
VERTEX
8
0
10
350.6875
20
-7
0
VERTEX
8
0
10
363.6875
20
-7
42
0.4142136
0
VERTEX
8
0
10
364.1875
20
-6.5
0
VERTEX
8
0
10
364.1875
20
6.5
42
0.4142136
0
VERTEX
8
0
10
363.6875
20
7
0
VERTEX
8
0
10
350.6875
20
7
42
0.4142136
0
VERTEX
8
0
10
350.1875
20
6.5
0
SEQEND
0
POLYLINE
8
0
6
CONTINUOUS
66
1
70
1
0
VERTEX
8
0
10
369.2375
20
-6.5
42
0.4142136
0
VERTEX
8
0
10
369.7375
20
-7
0
VERTEX
8
0
10
382.7375
20
-7
42
0.4142136
0
VERTEX
8
0
10
383.2375
20
-6.5
0
VERTEX
8
0
10
383.2375
20
6.5
42
0.4142136
0
VERTEX
8
0
10
382.7375
20
7
0
VERTEX
8
0
10
369.7375
20
7
42
0.4142136
0
VERTEX
8
0
10
369.2375
20
6.5
0
SEQEND
0
POLYLINE
8
0
6
CONTINUOUS
66
1
70
1
0
VERTEX
8
0
10
388.2875
20
-6.5
42
0.4142136
0
VERTEX
8
0
10
388.7875
20
-7
0
VERTEX
8
0
10
401.7875
20
-7
42
0.4142136
0
VERTEX
8
0
10
402.2875
20
-6.5
0
VERTEX
8
0
10
402.2875
20
6.5
42
0.4142136
0
VERTEX
8
0
10
401.7875
20
7
0
VERTEX
8
0
10
388.7875
20
7
42
0.4142136
0
VERTEX
8
0
10
388.2875
20
6.5
0
SEQEND
0
POLYLINE
8
0
6
CONTINUOUS
66
1
70
1
0
VERTEX
8
0
10
407.3375
20
-6.5
42
0.4142136
0
VERTEX
8
0
10
407.8375
20
-7
0
VERTEX
8
0
10
420.8375
20
-7
42
0.4142136
0
VERTEX
8
0
10
421.3375
20
-6.5
0
VERTEX
8
0
10
421.3375
20
6.5
42
0.4142136
0
VERTEX
8
0
10
420.8375
20
7
0
VERTEX
8
0
10
407.8375
20
7
42
0.4142136
0
VERTEX
8
0
10
407.3375
20
6.5
0
SEQEND
0
POLYLINE
8
0
6
CONTINUOUS
66
1
70
1
0
VERTEX
8
0
10
431.15
20
-6.5
42
0.4142136
0
VERTEX
8
0
10
431.65
20
-7
0
VERTEX
8
0
10
444.65
20
-7
42
0.4142136
0
VERTEX
8
0
10
445.15
20
-6.5
0
VERTEX
8
0
10
445.15
20
6.5
42
0.4142136
0
VERTEX
8
0
10
444.65
20
7
0
VERTEX
8
0
10
431.65
20
7
42
0.4142136
0
VERTEX
8
0
10
431.15
20
6.5
0
SEQEND
0
POLYLINE
8
0
6
CONTINUOUS
66
1
70
1
0
VERTEX
8
0
10
-7
20
-25.55
42
0.4142136
0
VERTEX
8
0
10
-6.5
20
-26.05
0
VERTEX
8
0
10
6.5
20
-26.05
42
0.4142136
0
VERTEX
8
0
10
7
20
-25.55
0
VERTEX
8
0
10
7
20
-12.55
42
0.4142136
0
VERTEX
8
0
10
6.5
20
-12.05
0
VERTEX
8
0
10
-6.5
20
-12.05
42
0.4142136
0
VERTEX
8
0
10
-7
20
-12.55
0
SEQEND
0
POLYLINE
8
0
6
CONTINUOUS
66
1
70
1
0
VERTEX
8
0
10
16.8125
20
-25.55
42
0.4142136
0
VERTEX
8
0
10
17.3125
20
-26.05
0
VERTEX
8
0
10
30.3125
20
-26.05
42
0.4142136
0
VERTEX
8
0
10
30.8125
20
-25.55
0
VERTEX
8
0
10
30.8125
20
-12.55
42
0.4142136
0
VERTEX
8
0
10
30.3125
20
-12.05
0
VERTEX
8
0
10
17.3125
20
-12.05
42
0.4142136
0
VERTEX
8
0
10
16.8125
20
-12.55
0
SEQEND
0
POLYLINE
8
0
6
CONTINUOUS
66
1
70
1
0
VERTEX
8
0
10
35.8625
20
-25.55
42
0.4142136
0
VERTEX
8
0
10
36.3625
20
-26.05
0
VERTEX
8
0
10
49.3625
20
-26.05
42
0.4142136
0
VERTEX
8
0
10
49.8625
20
-25.55
0
VERTEX
8
0
10
49.8625
20
-12.55
42
0.4142136
0
VERTEX
8
0
10
49.3625
20
-12.05
0
VERTEX
8
0
10
36.3625
20
-12.05
42
0.4142136
0
VERTEX
8
0
10
35.8625
20
-12.55
0
SEQEND
0
POLYLINE
8
0
6
CONTINUOUS
66
1
70
1
0
VERTEX
8
0
10
54.9125
20
-25.55
42
0.4142136
0
VERTEX
8
0
10
55.4125
20
-26.05
0
VERTEX
8
0
10
68.4125
20
-26.05
42
0.4142136
0
VERTEX
8
0
10
68.9125
20
-25.55
0
VERTEX
8
0
10
68.9125
20
-12.55
42
0.4142136
0
VERTEX
8
0
10
68.4125
20
-12.05
0
VERTEX
8
0
10
55.4125
20
-12.05
42
0.4142136
0
VERTEX
8
0
10
54.9125
20
-12.55
0
SEQEND
0
POLYLINE
8
0
6
CONTINUOUS
66
1
70
1
0
VERTEX
8
0
10
73.9625
20
-25.55
42
0.4142136
0
VERTEX
8
0
10
74.4625
20
-26.05
0
VERTEX
8
0
10
87.4625
20
-26.05
42
0.4142136
0
VERTEX
8
0
10
87.9625
20
-25.55
0
VERTEX
8
0
10
87.9625
20
-12.55
42
0.4142136
0
VERTEX
8
0
10
87.4625
20
-12.05
0
VERTEX
8
0
10
74.4625
20
-12.05
42
0.4142136
0
VERTEX
8
0
10
73.9625
20
-12.55
0
SEQEND
0
POLYLINE
8
0
6
CONTINUOUS
66
1
70
1
0
VERTEX
8
0
10
93.0125
20
-25.55
42
0.4142136
0
VERTEX
8
0
10
93.5125
20
-26.05
0
VERTEX
8
0
10
106.5125
20
-26.05
42
0.4142136
0
VERTEX
8
0
10
107.0125
20
-25.55
0
VERTEX
8
0
10
107.0125
20
-12.55
42
0.4142136
0
VERTEX
8
0
10
106.5125
20
-12.05
0
VERTEX
8
0
10
93.5125
20
-12.05
42
0.4142136
0
VERTEX
8
0
10
93.0125
20
-12.55
0
SEQEND
0
POLYLINE
8
0
6
CONTINUOUS
66
1
70
1
0
VERTEX
8
0
10
112.0625
20
-25.55
42
0.4142136
0
VERTEX
8
0
10
112.5625
20
-26.05
0
VERTEX
8
0
10
125.5625
20
-26.05
42
0.4142136
0
VERTEX
8
0
10
126.0625
20
-25.55
0
VERTEX
8
0
10
126.0625
20
-12.55
42
0.4142136
0
VERTEX
8
0
10
125.5625
20
-12.05
0
VERTEX
8
0
10
112.5625
20
-12.05
42
0.4142136
0
VERTEX
8
0
10
112.0625
20
-12.55
0
SEQEND
0
POLYLINE
8
0
6
CONTINUOUS
66
1
70
1
0
VERTEX
8
0
10
312.0875
20
-25.55
42
0.4142136
0
VERTEX
8
0
10
312.5875
20
-26.05
0
VERTEX
8
0
10
325.5875
20
-26.05
42
0.4142136
0
VERTEX
8
0
10
326.0875
20
-25.55
0
VERTEX
8
0
10
326.0875
20
-12.55
42
0.4142136
0
VERTEX
8
0
10
325.5875
20
-12.05
0
VERTEX
8
0
10
312.5875
20
-12.05
42
0.4142136
0
VERTEX
8
0
10
312.0875
20
-12.55
0
SEQEND
0
POLYLINE
8
0
6
CONTINUOUS
66
1
70
1
0
VERTEX
8
0
10
331.1375
20
-25.55
42
0.4142136
0
VERTEX
8
0
10
331.6375
20
-26.05
0
VERTEX
8
0
10
344.6375
20
-26.05
42
0.4142136
0
VERTEX
8
0
10
345.1375
20
-25.55
0
VERTEX
8
0
10
345.1375
20
-12.55
42
0.4142136
0
VERTEX
8
0
10
344.6375
20
-12.05
0
VERTEX
8
0
10
331.6375
20
-12.05
42
0.4142136
0
VERTEX
8
0
10
331.1375
20
-12.55
0
SEQEND
0
POLYLINE
8
0
6
CONTINUOUS
66
1
70
1
0
VERTEX
8
0
10
350.1875
20
-25.55
42
0.4142136
0
VERTEX
8
0
10
350.6875
20
-26.05
0
VERTEX
8
0
10
363.6875
20
-26.05
42
0.4142136
0
VERTEX
8
0
10
364.1875
20
-25.55
0
VERTEX
8
0
10
364.1875
20
-12.55
42
0.4142136
0
VERTEX
8
0
10
363.6875
20
-12.05
0
VERTEX
8
0
10
350.6875
20
-12.05
42
0.4142136
0
VERTEX
8
0
10
350.1875
20
-12.55
0
SEQEND
0
POLYLINE
8
0
6
CONTINUOUS
66
1
70
1
0
VERTEX
8
0
10
369.2375
20
-25.55
42
0.4142136
0
VERTEX
8
0
10
369.7375
20
-26.05
0
VERTEX
8
0
10
382.7375
20
-26.05
42
0.4142136
0
VERTEX
8
0
10
383.2375
20
-25.55
0
VERTEX
8
0
10
383.2375
20
-12.55
42
0.4142136
0
VERTEX
8
0
10
382.7375
20
-12.05
0
VERTEX
8
0
10
369.7375
20
-12.05
42
0.4142136
0
VERTEX
8
0
10
369.2375
20
-12.55
0
SEQEND
0
POLYLINE
8
0
6
CONTINUOUS
66
1
70
1
0
VERTEX
8
0
10
388.2875
20
-25.55
42
0.4142136
0
VERTEX
8
0
10
388.7875
20
-26.05
0
VERTEX
8
0
10
401.7875
20
-26.05
42
0.4142136
0
VERTEX
8
0
10
402.2875
20
-25.55
0
VERTEX
8
0
10
402.2875
20
-12.55
42
0.4142136
0
VERTEX
8
0
10
401.7875
20
-12.05
0
VERTEX
8
0
10
388.7875
20
-12.05
42
0.4142136
0
VERTEX
8
0
10
388.2875
20
-12.55
0
SEQEND
0
POLYLINE
8
0
6
CONTINUOUS
66
1
70
1
0
VERTEX
8
0
10
407.3375
20
-25.55
42
0.4142136
0
VERTEX
8
0
10
407.8375
20
-26.05
0
VERTEX
8
0
10
420.8375
20
-26.05
42
0.4142136
0
VERTEX
8
0
10
421.3375
20
-25.55
0
VERTEX
8
0
10
421.3375
20
-12.55
42
0.4142136
0
VERTEX
8
0
10
420.8375
20
-12.05
0
VERTEX
8
0
10
407.8375
20
-12.05
42
0.4142136
0
VERTEX
8
0
10
407.3375
20
-12.55
0
SEQEND
0
POLYLINE
8
0
6
CONTINUOUS
66
1
70
1
0
VERTEX
8
0
10
431.15
20
-25.55
42
0.4142136
0
VERTEX
8
0
10
431.65
20
-26.05
0
VERTEX
8
0
10
444.65
20
-26.05
42
0.4142136
0
VERTEX
8
0
10
445.15
20
-25.55
0
VERTEX
8
0
10
445.15
20
-12.55
42
0.4142136
0
VERTEX
8
0
10
444.65
20
-12.05
0
VERTEX
8
0
10
431.65
20
-12.05
42
0.4142136
0
VERTEX
8
0
10
431.15
20
-12.55
0
SEQEND
0
POLYLINE
8
0
6
CONTINUOUS
66
1
70
1
0
VERTEX
8
0
10
-7
20
-44.6
42
0.4142136
0
VERTEX
8
0
10
-6.5
20
-45.1
0
VERTEX
8
0
10
6.5
20
-45.1
42
0.4142136
0
VERTEX
8
0
10
7
20
-44.6
0
VERTEX
8
0
10
7
20
-31.6
42
0.4142136
0
VERTEX
8
0
10
6.5
20
-31.1
0
VERTEX
8
0
10
-6.5
20
-31.1
42
0.4142136
0
VERTEX
8
0
10
-7
20
-31.6
0
SEQEND
0
POLYLINE
8
0
6
CONTINUOUS
66
1
70
1
0
VERTEX
8
0
10
16.8125
20
-44.6
42
0.4142136
0
VERTEX
8
0
10
17.3125
20
-45.1
0
VERTEX
8
0
10
30.3125
20
-45.1
42
0.4142136
0
VERTEX
8
0
10
30.8125
20
-44.6
0
VERTEX
8
0
10
30.8125
20
-31.6
42
0.4142136
0
VERTEX
8
0
10
30.3125
20
-31.1
0
VERTEX
8
0
10
17.3125
20
-31.1
42
0.4142136
0
VERTEX
8
0
10
16.8125
20
-31.6
0
SEQEND
0
POLYLINE
8
0
6
CONTINUOUS
66
1
70
1
0
VERTEX
8
0
10
35.8625
20
-44.6
42
0.4142136
0
VERTEX
8
0
10
36.3625
20
-45.1
0
VERTEX
8
0
10
49.3625
20
-45.1
42
0.4142136
0
VERTEX
8
0
10
49.8625
20
-44.6
0
VERTEX
8
0
10
49.8625
20
-31.6
42
0.4142136
0
VERTEX
8
0
10
49.3625
20
-31.1
0
VERTEX
8
0
10
36.3625
20
-31.1
42
0.4142136
0
VERTEX
8
0
10
35.8625
20
-31.6
0
SEQEND
0
POLYLINE
8
0
6
CONTINUOUS
66
1
70
1
0
VERTEX
8
0
10
54.9125
20
-44.6
42
0.4142136
0
VERTEX
8
0
10
55.4125
20
-45.1
0
VERTEX
8
0
10
68.4125
20
-45.1
42
0.4142136
0
VERTEX
8
0
10
68.9125
20
-44.6
0
VERTEX
8
0
10
68.9125
20
-31.6
42
0.4142136
0
VERTEX
8
0
10
68.4125
20
-31.1
0
VERTEX
8
0
10
55.4125
20
-31.1
42
0.4142136
0
VERTEX
8
0
10
54.9125
20
-31.6
0
SEQEND
0
POLYLINE
8
0
6
CONTINUOUS
66
1
70
1
0
VERTEX
8
0
10
73.9625
20
-44.6
42
0.4142136
0
VERTEX
8
0
10
74.4625
20
-45.1
0
VERTEX
8
0
10
87.4625
20
-45.1
42
0.4142136
0
VERTEX
8
0
10
87.9625
20
-44.6
0
VERTEX
8
0
10
87.9625
20
-31.6
42
0.4142136
0
VERTEX
8
0
10
87.4625
20
-31.1
0
VERTEX
8
0
10
74.4625
20
-31.1
42
0.4142136
0
VERTEX
8
0
10
73.9625
20
-31.6
0
SEQEND
0
POLYLINE
8
0
6
CONTINUOUS
66
1
70
1
0
VERTEX
8
0
10
93.0125
20
-44.6
42
0.4142136
0
VERTEX
8
0
10
93.5125
20
-45.1
0
VERTEX
8
0
10
106.5125
20
-45.1
42
0.4142136
0
VERTEX
8
0
10
107.0125
20
-44.6
0
VERTEX
8
0
10
107.0125
20
-31.6
42
0.4142136
0
VERTEX
8
0
10
106.5125
20
-31.1
0
VERTEX
8
0
10
93.5125
20
-31.1
42
0.4142136
0
VERTEX
8
0
10
93.0125
20
-31.6
0
SEQEND
0
POLYLINE
8
0
6
CONTINUOUS
66
1
70
1
0
VERTEX
8
0
10
112.0625
20
-44.6
42
0.4142136
0
VERTEX
8
0
10
112.5625
20
-45.1
0
VERTEX
8
0
10
125.5625
20
-45.1
42
0.4142136
0
VERTEX
8
0
10
126.0625
20
-44.6
0
VERTEX
8
0
10
126.0625
20
-31.6
42
0.4142136
0
VERTEX
8
0
10
125.5625
20
-31.1
0
VERTEX
8
0
10
112.5625
20
-31.1
42
0.4142136
0
VERTEX
8
0
10
112.0625
20
-31.6
0
SEQEND
0
POLYLINE
8
0
6
CONTINUOUS
66
1
70
1
0
VERTEX
8
0
10
312.0875
20
-44.6
42
0.4142136
0
VERTEX
8
0
10
312.5875
20
-45.1
0
VERTEX
8
0
10
325.5875
20
-45.1
42
0.4142136
0
VERTEX
8
0
10
326.0875
20
-44.6
0
VERTEX
8
0
10
326.0875
20
-31.6
42
0.4142136
0
VERTEX
8
0
10
325.5875
20
-31.1
0
VERTEX
8
0
10
312.5875
20
-31.1
42
0.4142136
0
VERTEX
8
0
10
312.0875
20
-31.6
0
SEQEND
0
POLYLINE
8
0
6
CONTINUOUS
66
1
70
1
0
VERTEX
8
0
10
331.1375
20
-44.6
42
0.4142136
0
VERTEX
8
0
10
331.6375
20
-45.1
0
VERTEX
8
0
10
344.6375
20
-45.1
42
0.4142136
0
VERTEX
8
0
10
345.1375
20
-44.6
0
VERTEX
8
0
10
345.1375
20
-31.6
42
0.4142136
0
VERTEX
8
0
10
344.6375
20
-31.1
0
VERTEX
8
0
10
331.6375
20
-31.1
42
0.4142136
0
VERTEX
8
0
10
331.1375
20
-31.6
0
SEQEND
0
POLYLINE
8
0
6
CONTINUOUS
66
1
70
1
0
VERTEX
8
0
10
350.1875
20
-44.6
42
0.4142136
0
VERTEX
8
0
10
350.6875
20
-45.1
0
VERTEX
8
0
10
363.6875
20
-45.1
42
0.4142136
0
VERTEX
8
0
10
364.1875
20
-44.6
0
VERTEX
8
0
10
364.1875
20
-31.6
42
0.4142136
0
VERTEX
8
0
10
363.6875
20
-31.1
0
VERTEX
8
0
10
350.6875
20
-31.1
42
0.4142136
0
VERTEX
8
0
10
350.1875
20
-31.6
0
SEQEND
0
POLYLINE
8
0
6
CONTINUOUS
66
1
70
1
0
VERTEX
8
0
10
369.2375
20
-44.6
42
0.4142136
0
VERTEX
8
0
10
369.7375
20
-45.1
0
VERTEX
8
0
10
382.7375
20
-45.1
42
0.4142136
0
VERTEX
8
0
10
383.2375
20
-44.6
0
VERTEX
8
0
10
383.2375
20
-31.6
42
0.4142136
0
VERTEX
8
0
10
382.7375
20
-31.1
0
VERTEX
8
0
10
369.7375
20
-31.1
42
0.4142136
0
VERTEX
8
0
10
369.2375
20
-31.6
0
SEQEND
0
POLYLINE
8
0
6
CONTINUOUS
66
1
70
1
0
VERTEX
8
0
10
388.2875
20
-44.6
42
0.4142136
0
VERTEX
8
0
10
388.7875
20
-45.1
0
VERTEX
8
0
10
401.7875
20
-45.1
42
0.4142136
0
VERTEX
8
0
10
402.2875
20
-44.6
0
VERTEX
8
0
10
402.2875
20
-31.6
42
0.4142136
0
VERTEX
8
0
10
401.7875
20
-31.1
0
VERTEX
8
0
10
388.7875
20
-31.1
42
0.4142136
0
VERTEX
8
0
10
388.2875
20
-31.6
0
SEQEND
0
POLYLINE
8
0
6
CONTINUOUS
66
1
70
1
0
VERTEX
8
0
10
407.3375
20
-44.6
42
0.4142136
0
VERTEX
8
0
10
407.8375
20
-45.1
0
VERTEX
8
0
10
420.8375
20
-45.1
42
0.4142136
0
VERTEX
8
0
10
421.3375
20
-44.6
0
VERTEX
8
0
10
421.3375
20
-31.6
42
0.4142136
0
VERTEX
8
0
10
420.8375
20
-31.1
0
VERTEX
8
0
10
407.8375
20
-31.1
42
0.4142136
0
VERTEX
8
0
10
407.3375
20
-31.6
0
SEQEND
0
POLYLINE
8
0
6
CONTINUOUS
66
1
70
1
0
VERTEX
8
0
10
431.15
20
-44.6
42
0.4142136
0
VERTEX
8
0
10
431.65
20
-45.1
0
VERTEX
8
0
10
444.65
20
-45.1
42
0.4142136
0
VERTEX
8
0
10
445.15
20
-44.6
0
VERTEX
8
0
10
445.15
20
-31.6
42
0.4142136
0
VERTEX
8
0
10
444.65
20
-31.1
0
VERTEX
8
0
10
431.65
20
-31.1
42
0.4142136
0
VERTEX
8
0
10
431.15
20
-31.6
0
SEQEND
0
POLYLINE
8
0
6
CONTINUOUS
66
1
70
1
0
VERTEX
8
0
10
-7
20
-63.65
42
0.4142136
0
VERTEX
8
0
10
-6.5
20
-64.15
0
VERTEX
8
0
10
6.5
20
-64.15
42
0.4142136
0
VERTEX
8
0
10
7
20
-63.65
0
VERTEX
8
0
10
7
20
-50.65
42
0.4142136
0
VERTEX
8
0
10
6.5
20
-50.15
0
VERTEX
8
0
10
-6.5
20
-50.15
42
0.4142136
0
VERTEX
8
0
10
-7
20
-50.65
0
SEQEND
0
POLYLINE
8
0
6
CONTINUOUS
66
1
70
1
0
VERTEX
8
0
10
16.8125
20
-63.65
42
0.4142136
0
VERTEX
8
0
10
17.3125
20
-64.15
0
VERTEX
8
0
10
30.3125
20
-64.15
42
0.4142136
0
VERTEX
8
0
10
30.8125
20
-63.65
0
VERTEX
8
0
10
30.8125
20
-50.65
42
0.4142136
0
VERTEX
8
0
10
30.3125
20
-50.15
0
VERTEX
8
0
10
17.3125
20
-50.15
42
0.4142136
0
VERTEX
8
0
10
16.8125
20
-50.65
0
SEQEND
0
POLYLINE
8
0
6
CONTINUOUS
66
1
70
1
0
VERTEX
8
0
10
35.8625
20
-63.65
42
0.4142136
0
VERTEX
8
0
10
36.3625
20
-64.15
0
VERTEX
8
0
10
49.3625
20
-64.15
42
0.4142136
0
VERTEX
8
0
10
49.8625
20
-63.65
0
VERTEX
8
0
10
49.8625
20
-50.65
42
0.4142136
0
VERTEX
8
0
10
49.3625
20
-50.15
0
VERTEX
8
0
10
36.3625
20
-50.15
42
0.4142136
0
VERTEX
8
0
10
35.8625
20
-50.65
0
SEQEND
0
POLYLINE
8
0
6
CONTINUOUS
66
1
70
1
0
VERTEX
8
0
10
54.9125
20
-63.65
42
0.4142136
0
VERTEX
8
0
10
55.4125
20
-64.15
0
VERTEX
8
0
10
68.4125
20
-64.15
42
0.4142136
0
VERTEX
8
0
10
68.9125
20
-63.65
0
VERTEX
8
0
10
68.9125
20
-50.65
42
0.4142136
0
VERTEX
8
0
10
68.4125
20
-50.15
0
VERTEX
8
0
10
55.4125
20
-50.15
42
0.4142136
0
VERTEX
8
0
10
54.9125
20
-50.65
0
SEQEND
0
POLYLINE
8
0
6
CONTINUOUS
66
1
70
1
0
VERTEX
8
0
10
73.9625
20
-63.65
42
0.4142136
0
VERTEX
8
0
10
74.4625
20
-64.15
0
VERTEX
8
0
10
87.4625
20
-64.15
42
0.4142136
0
VERTEX
8
0
10
87.9625
20
-63.65
0
VERTEX
8
0
10
87.9625
20
-50.65
42
0.4142136
0
VERTEX
8
0
10
87.4625
20
-50.15
0
VERTEX
8
0
10
74.4625
20
-50.15
42
0.4142136
0
VERTEX
8
0
10
73.9625
20
-50.65
0
SEQEND
0
POLYLINE
8
0
6
CONTINUOUS
66
1
70
1
0
VERTEX
8
0
10
93.0125
20
-63.65
42
0.4142136
0
VERTEX
8
0
10
93.5125
20
-64.15
0
VERTEX
8
0
10
106.5125
20
-64.15
42
0.4142136
0
VERTEX
8
0
10
107.0125
20
-63.65
0
VERTEX
8
0
10
107.0125
20
-50.65
42
0.4142136
0
VERTEX
8
0
10
106.5125
20
-50.15
0
VERTEX
8
0
10
93.5125
20
-50.15
42
0.4142136
0
VERTEX
8
0
10
93.0125
20
-50.65
0
SEQEND
0
POLYLINE
8
0
6
CONTINUOUS
66
1
70
1
0
VERTEX
8
0
10
112.0625
20
-63.65
42
0.4142136
0
VERTEX
8
0
10
112.5625
20
-64.15
0
VERTEX
8
0
10
125.5625
20
-64.15
42
0.4142136
0
VERTEX
8
0
10
126.0625
20
-63.65
0
VERTEX
8
0
10
126.0625
20
-50.65
42
0.4142136
0
VERTEX
8
0
10
125.5625
20
-50.15
0
VERTEX
8
0
10
112.5625
20
-50.15
42
0.4142136
0
VERTEX
8
0
10
112.0625
20
-50.65
0
SEQEND
0
POLYLINE
8
0
6
CONTINUOUS
66
1
70
1
0
VERTEX
8
0
10
312.0875
20
-63.65
42
0.4142136
0
VERTEX
8
0
10
312.5875
20
-64.15
0
VERTEX
8
0
10
325.5875
20
-64.15
42
0.4142136
0
VERTEX
8
0
10
326.0875
20
-63.65
0
VERTEX
8
0
10
326.0875
20
-50.65
42
0.4142136
0
VERTEX
8
0
10
325.5875
20
-50.15
0
VERTEX
8
0
10
312.5875
20
-50.15
42
0.4142136
0
VERTEX
8
0
10
312.0875
20
-50.65
0
SEQEND
0
POLYLINE
8
0
6
CONTINUOUS
66
1
70
1
0
VERTEX
8
0
10
331.1375
20
-63.65
42
0.4142136
0
VERTEX
8
0
10
331.6375
20
-64.15
0
VERTEX
8
0
10
344.6375
20
-64.15
42
0.4142136
0
VERTEX
8
0
10
345.1375
20
-63.65
0
VERTEX
8
0
10
345.1375
20
-50.65
42
0.4142136
0
VERTEX
8
0
10
344.6375
20
-50.15
0
VERTEX
8
0
10
331.6375
20
-50.15
42
0.4142136
0
VERTEX
8
0
10
331.1375
20
-50.65
0
SEQEND
0
POLYLINE
8
0
6
CONTINUOUS
66
1
70
1
0
VERTEX
8
0
10
350.1875
20
-63.65
42
0.4142136
0
VERTEX
8
0
10
350.6875
20
-64.15
0
VERTEX
8
0
10
363.6875
20
-64.15
42
0.4142136
0
VERTEX
8
0
10
364.1875
20
-63.65
0
VERTEX
8
0
10
364.1875
20
-50.65
42
0.4142136
0
VERTEX
8
0
10
363.6875
20
-50.15
0
VERTEX
8
0
10
350.6875
20
-50.15
42
0.4142136
0
VERTEX
8
0
10
350.1875
20
-50.65
0
SEQEND
0
POLYLINE
8
0
6
CONTINUOUS
66
1
70
1
0
VERTEX
8
0
10
369.2375
20
-63.65
42
0.4142136
0
VERTEX
8
0
10
369.7375
20
-64.15
0
VERTEX
8
0
10
382.7375
20
-64.15
42
0.4142136
0
VERTEX
8
0
10
383.2375
20
-63.65
0
VERTEX
8
0
10
383.2375
20
-50.65
42
0.4142136
0
VERTEX
8
0
10
382.7375
20
-50.15
0
VERTEX
8
0
10
369.7375
20
-50.15
42
0.4142136
0
VERTEX
8
0
10
369.2375
20
-50.65
0
SEQEND
0
POLYLINE
8
0
6
CONTINUOUS
66
1
70
1
0
VERTEX
8
0
10
388.2875
20
-63.65
42
0.4142136
0
VERTEX
8
0
10
388.7875
20
-64.15
0
VERTEX
8
0
10
401.7875
20
-64.15
42
0.4142136
0
VERTEX
8
0
10
402.2875
20
-63.65
0
VERTEX
8
0
10
402.2875
20
-50.65
42
0.4142136
0
VERTEX
8
0
10
401.7875
20
-50.15
0
VERTEX
8
0
10
388.7875
20
-50.15
42
0.4142136
0
VERTEX
8
0
10
388.2875
20
-50.65
0
SEQEND
0
POLYLINE
8
0
6
CONTINUOUS
66
1
70
1
0
VERTEX
8
0
10
407.3375
20
-63.65
42
0.4142136
0
VERTEX
8
0
10
407.8375
20
-64.15
0
VERTEX
8
0
10
420.8375
20
-64.15
42
0.4142136
0
VERTEX
8
0
10
421.3375
20
-63.65
0
VERTEX
8
0
10
421.3375
20
-50.65
42
0.4142136
0
VERTEX
8
0
10
420.8375
20
-50.15
0
VERTEX
8
0
10
407.8375
20
-50.15
42
0.4142136
0
VERTEX
8
0
10
407.3375
20
-50.65
0
SEQEND
0
POLYLINE
8
0
6
CONTINUOUS
66
1
70
1
0
VERTEX
8
0
10
431.15
20
-63.65
42
0.4142136
0
VERTEX
8
0
10
431.65
20
-64.15
0
VERTEX
8
0
10
444.65
20
-64.15
42
0.4142136
0
VERTEX
8
0
10
445.15
20
-63.65
0
VERTEX
8
0
10
445.15
20
-50.65
42
0.4142136
0
VERTEX
8
0
10
444.65
20
-50.15
0
VERTEX
8
0
10
431.65
20
-50.15
42
0.4142136
0
VERTEX
8
0
10
431.15
20
-50.65
0
SEQEND
0
POLYLINE
8
0
6
CONTINUOUS
66
1
70
1
0
VERTEX
8
0
10
131.6926006
20
-76.3127832
42
0.4142136
0
VERTEX
8
0
10
132.046154
20
-76.9251556
0
VERTEX
8
0
10
137.841709
20
-78.4780699
42
0.4142136
0
VERTEX
8
0
10
138.4540814
20
-78.1245165
0
VERTEX
8
0
10
142.077548
20
-64.6015549
42
0.4142136
0
VERTEX
8
0
10
141.7239946
20
-63.9891825
0
VERTEX
8
0
10
135.9284397
20
-62.4362683
42
0.4142136
0
VERTEX
8
0
10
135.3160672
20
-62.7898216
0
SEQEND
0
POLYLINE
8
0
6
CONTINUOUS
66
1
70
1
0
VERTEX
8
0
10
154.7550457
20
-82.4923467
42
0.4142136
0
VERTEX
8
0
10
155.108599
20
-83.1047192
0
VERTEX
8
0
10
160.904154
20
-84.6576334
42
0.4142136
0
VERTEX
8
0
10
161.5165264
20
-84.30408
0
VERTEX
8
0
10
165.139993
20
-70.7811185
42
0.4142136
0
VERTEX
8
0
10
164.7864397
20
-70.168746
0
VERTEX
8
0
10
158.9908847
20
-68.6158318
42
0.4142136
0
VERTEX
8
0
10
158.3785123
20
-68.9693852
0
SEQEND
0
POLYLINE
8
0
6
CONTINUOUS
66
1
70
1
0
VERTEX
8
0
10
109.5927196
20
-75.1917136
42
0.4142136
0
VERTEX
8
0
10
108.9803472
20
-75.545267
0
VERTEX
8
0
10
107.4274329
20
-81.340822
42
0.4142136
0
VERTEX
8
0
10
107.7809863
20
-81.9531944
0
VERTEX
8
0
10
121.3039479
20
-85.576661
42
0.4142136
0
VERTEX
8
0
10
121.9163203
20
-85.2231076
0
VERTEX
8
0
10
123.4692345
20
-79.4275527
42
0.4142136
0
VERTEX
8
0
10
123.1156812
20
-78.8151802
0
SEQEND
0
POLYLINE
8
0
6
CONTINUOUS
66
1
70
1
0
VERTEX
8
0
10
103.4131561
20
-98.2541587
42
0.4142136
0
VERTEX
8
0
10
102.8007836
20
-98.607712
0
VERTEX
8
0
10
101.2478694
20
-104.403267
42
0.4142136
0
VERTEX
8
0
10
101.6014228
20
-105.0156394
0
VERTEX
8
0
10
115.1243843
20
-108.639106
42
0.4142136
0
VERTEX
8
0
10
115.7367568
20
-108.2855527
0
VERTEX
8
0
10
117.289671
20
-102.4899977
42
0.4142136
0
VERTEX
8
0
10
116.9361176
20
-101.8776253
0
SEQEND
0
POLYLINE
8
0
6
CONTINUOUS
66
1
70
1
0
VERTEX
8
0
10
127.9936066
20
-80.1222164
42
0.4142136
0
VERTEX
8
0
10
127.3812342
20
-80.4757698
0
VERTEX
8
0
10
125.8283199
20
-86.2713248
42
0.4142136
0
VERTEX
8
0
10
126.1818733
20
-86.8836972
0
VERTEX
8
0
10
139.7048349
20
-90.5071638
42
0.4142136
0
VERTEX
8
0
10
140.3172073
20
-90.1536104
0
VERTEX
8
0
10
141.8701215
20
-84.3580555
42
0.4142136
0
VERTEX
8
0
10
141.5165682
20
-83.745683
0
SEQEND
0
POLYLINE
8
0
6
CONTINUOUS
66
1
70
1
0
VERTEX
8
0
10
121.8140431
20
-103.1846615
42
0.4142136
0
VERTEX
8
0
10
121.2016706
20
-103.5382148
0
VERTEX
8
0
10
119.6487564
20
-109.3337698
42
0.4142136
0
VERTEX
8
0
10
120.0023098
20
-109.9461422
0
VERTEX
8
0
10
133.5252713
20
-113.5696088
42
0.4142136
0
VERTEX
8
0
10
134.1376438
20
-113.2160555
0
VERTEX
8
0
10
135.690558
20
-107.4205005
42
0.4142136
0
VERTEX
8
0
10
135.3370046
20
-106.8081281
0
SEQEND
0
POLYLINE
8
0
6
CONTINUOUS
66
1
70
1
0
VERTEX
8
0
10
146.3944936
20
-85.0527192
42
0.4142136
0
VERTEX
8
0
10
145.7821212
20
-85.4062726
0
VERTEX
8
0
10
144.2292069
20
-91.2018276
42
0.4142136
0
VERTEX
8
0
10
144.5827603
20
-91.8142
0
VERTEX
8
0
10
158.1057219
20
-95.4376666
42
0.4142136
0
VERTEX
8
0
10
158.7180943
20
-95.0841132
0
VERTEX
8
0
10
160.2710085
20
-89.2885583
42
0.4142136
0
VERTEX
8
0
10
159.9174552
20
-88.6761858
0
SEQEND
0
POLYLINE
8
0
6
CONTINUOUS
66
1
70
1
0
VERTEX
8
0
10
140.2149301
20
-108.1151643
42
0.4142136
0
VERTEX
8
0
10
139.6025576
20
-108.4687176
0
VERTEX
8
0
10
138.0496434
20
-114.2642726
42
0.4142136
0
VERTEX
8
0
10
138.4031968
20
-114.876645
0
VERTEX
8
0
10
151.9261583
20
-118.5001116
42
0.4142136
0
VERTEX
8
0
10
152.5385308
20
-118.1465583
0
VERTEX
8
0
10
154.091445
20
-112.3510033
42
0.4142136
0
VERTEX
8
0
10
153.7378916
20
-111.7386309
0
SEQEND
0
POLYLINE
8
0
6
CONTINUOUS
66
1
70
1
0
VERTEX
8
0
10
275.3347674
20
-89.452643
42
0.4142136
0
VERTEX
8
0
10
274.981214
20
-90.0650154
0
VERTEX
8
0
10
276.5341283
20
-95.8605703
42
0.4142136
0
VERTEX
8
0
10
277.1465007
20
-96.2141238
0
VERTEX
8
0
10
290.6694622
20
-92.5906571
42
0.4142136
0
VERTEX
8
0
10
291.0230156
20
-91.9782847
0
VERTEX
8
0
10
289.4701013
20
-86.1827298
42
0.4142136
0
VERTEX
8
0
10
288.8577289
20
-85.8291763
0
SEQEND
0
POLYLINE
8
0
6
CONTINUOUS
66
1
70
1
0
VERTEX
8
0
10
281.5143309
20
-112.515088
42
0.4142136
0
VERTEX
8
0
10
281.1607775
20
-113.1274604
0
VERTEX
8
0
10
282.7136918
20
-118.9230154
42
0.4142136
0
VERTEX
8
0
10
283.3260642
20
-119.2765688
0
VERTEX
8
0
10
296.8490257
20
-115.6531021
42
0.4142136
0
VERTEX
8
0
10
297.2025792
20
-115.0407297
0
VERTEX
8
0
10
295.6496649
20
-109.2451748
42
0.4142136
0
VERTEX
8
0
10
295.0372924
20
-108.8916214
0
SEQEND
0
POLYLINE
8
0
6
CONTINUOUS
66
1
70
1
0
VERTEX
8
0
10
293.7356544
20
-84.5221402
42
0.4142136
0
VERTEX
8
0
10
293.382101
20
-85.1345126
0
VERTEX
8
0
10
294.9350153
20
-90.9300675
42
0.4142136
0
VERTEX
8
0
10
295.5473877
20
-91.283621
0
VERTEX
8
0
10
309.0703492
20
-87.6601543
42
0.4142136
0
VERTEX
8
0
10
309.4239026
20
-87.0477819
0
VERTEX
8
0
10
307.8709883
20
-81.252227
42
0.4142136
0
VERTEX
8
0
10
307.2586159
20
-80.8986735
0
SEQEND
0
POLYLINE
8
0
6
CONTINUOUS
66
1
70
1
0
VERTEX
8
0
10
299.9152179
20
-107.5845852
42
0.4142136
0
VERTEX
8
0
10
299.5616645
20
-108.1969576
0
VERTEX
8
0
10
301.1145788
20
-113.9925126
42
0.4142136
0
VERTEX
8
0
10
301.7269512
20
-114.346066
0
VERTEX
8
0
10
315.2499127
20
-110.7225993
42
0.4142136
0
VERTEX
8
0
10
315.6034662
20
-110.1102269
0
VERTEX
8
0
10
314.0505519
20
-104.314672
42
0.4142136
0
VERTEX
8
0
10
313.4381794
20
-103.9611186
0
SEQEND
0
POLYLINE
8
0
6
CONTINUOUS
66
1
70
1
0
VERTEX
8
0
10
312.1365414
20
-79.5916374
42
0.4142136
0
VERTEX
8
0
10
311.782988
20
-80.2040098
0
VERTEX
8
0
10
313.3359023
20
-85.9995647
42
0.4142136
0
VERTEX
8
0
10
313.9482747
20
-86.3531182
0
VERTEX
8
0
10
327.4712362
20
-82.7296515
42
0.4142136
0
VERTEX
8
0
10
327.8247896
20
-82.1172791
0
VERTEX
8
0
10
326.2718753
20
-76.3217242
42
0.4142136
0
VERTEX
8
0
10
325.6595029
20
-75.9681707
0
SEQEND
0
POLYLINE
8
0
6
CONTINUOUS
66
1
70
1
0
VERTEX
8
0
10
318.3161049
20
-102.6540824
42
0.4142136
0
VERTEX
8
0
10
317.9625515
20
-103.2664548
0
VERTEX
8
0
10
319.5154658
20
-109.0620098
42
0.4142136
0
VERTEX
8
0
10
320.1278382
20
-109.4155632
0
VERTEX
8
0
10
333.6507997
20
-105.7920965
42
0.4142136
0
VERTEX
8
0
10
334.0043532
20
-105.1797241
0
VERTEX
8
0
10
332.4514389
20
-99.3841692
42
0.4142136
0
VERTEX
8
0
10
331.8390664
20
-99.0306158
0
SEQEND
0
POLYLINE
8
0
6
CONTINUOUS
66
1
70
1
0
VERTEX
8
0
10
276.6334736
20
-84.30408
42
0.4142136
0
VERTEX
8
0
10
277.245846
20
-84.6576334
0
VERTEX
8
0
10
283.0414009
20
-83.1047191
42
0.4142136
0
VERTEX
8
0
10
283.3949544
20
-82.4923467
0
VERTEX
8
0
10
279.7714877
20
-68.9693852
42
0.4142136
0
VERTEX
8
0
10
279.1591153
20
-68.6158318
0
VERTEX
8
0
10
273.3635604
20
-70.1687461
42
0.4142136
0
VERTEX
8
0
10
273.0100069
20
-70.7811185
0
SEQEND
0
POLYLINE
8
0
6
CONTINUOUS
66
1
70
1
0
VERTEX
8
0
10
299.6959186
20
-78.1245165
42
0.4142136
0
VERTEX
8
0
10
300.308291
20
-78.4780699
0
VERTEX
8
0
10
306.103846
20
-76.9251556
42
0.4142136
0
VERTEX
8
0
10
306.4573994
20
-76.3127832
0
VERTEX
8
0
10
302.8339327
20
-62.7898217
42
0.4142136
0
VERTEX
8
0
10
302.2215603
20
-62.4362682
0
VERTEX
8
0
10
296.4260054
20
-63.9891825
42
0.4142136
0
VERTEX
8
0
10
296.072452
20
-64.601555
0
SEQEND
0
POLYLINE
8
outline
6
CONTINUOUS
66
1
70
1
0
VERTEX
8
outline
10
18.7625
20
14
0
VERTEX
8
outline
10
9.8125
20
14
0
VERTEX
8
outline
10
-18.7625
20
14
0
VERTEX
8
outline
10
-18.7625
20
-5.05
0
VERTEX
8
outline
10
-18.7625
20
-14
0
VERTEX
8
outline
10
-18.7625
20
-24.1
0
VERTEX
8
outline
10
-18.7625
20
-33.05
0
VERTEX
8
outline
10
-18.7625
20
-43.15
0
VERTEX
8
outline
10
-18.7625
20
-52.1
0
VERTEX
8
outline
10
-18.7625
20
-71.15
0
VERTEX
8
outline
10
9.8125
20
-71.15
0
VERTEX
8
outline
10
18.7625
20
-71.15
0
VERTEX
8
outline
10
28.8625
20
-71.15
0
VERTEX
8
outline
10
37.8125
20
-71.15
0
VERTEX
8
outline
10
47.9125
20
-71.15
0
VERTEX
8
outline
10
56.8625
20
-71.15
0
VERTEX
8
outline
10
66.9625
20
-71.15
0
VERTEX
8
outline
10
75.9125
20
-71.15
0
VERTEX
8
outline
10
86.0125
20
-71.15
0
VERTEX
8
outline
10
94.9625
20
-71.15
0
VERTEX
8
outline
10
104.9816745
20
-71.15
0
VERTEX
8
outline
10
94.1957611
20
-111.4035768
0
VERTEX
8
outline
10
112.5966481
20
-116.3340796
0
VERTEX
8
outline
10
121.2416842
20
-118.6505101
0
VERTEX
8
outline
10
130.9975351
20
-121.2645824
0
VERTEX
8
outline
10
139.6425712
20
-123.5810129
0
VERTEX
8
outline
10
158.0434582
20
-128.5115157
0
VERTEX
8
outline
10
167.9044638
20
-91.7097417
0
VERTEX
8
outline
10
170.2208943
20
-83.0647056
0
VERTEX
8
outline
10
175.1513971
20
-64.6638186
0
VERTEX
8
outline
10
133.0625
20
-53.3861326
0
VERTEX
8
outline
10
133.0625
20
-52.1
0
VERTEX
8
outline
10
133.0625
20
-43.15
0
VERTEX
8
outline
10
133.0625
20
-33.05
0
VERTEX
8
outline
10
133.0625
20
-24.1
0
VERTEX
8
outline
10
133.0625
20
-14
0
VERTEX
8
outline
10
133.0625
20
-5.05
0
VERTEX
8
outline
10
133.0625
20
14
0
VERTEX
8
outline
10
114.0125
20
14
0
VERTEX
8
outline
10
105.0625
20
14
0
VERTEX
8
outline
10
94.9625
20
14
0
VERTEX
8
outline
10
86.0125
20
14
0
VERTEX
8
outline
10
75.9125
20
14
0
VERTEX
8
outline
10
66.9625
20
14
0
VERTEX
8
outline
10
56.8625
20
14
0
VERTEX
8
outline
10
47.9125
20
14
0
VERTEX
8
outline
10
37.8125
20
14
0
VERTEX
8
outline
10
28.8625
20
14
0
SEQEND
0
POLYLINE
8
outline
6
CONTINUOUS
66
1
70
1
0
VERTEX
8
outline
10
333.0875
20
14
0
VERTEX
8
outline
10
324.1375
20
14
0
VERTEX
8
outline
10
305.0875
20
14
0
VERTEX
8
outline
10
305.0875
20
-5.05
0
VERTEX
8
outline
10
305.0875
20
-14
0
VERTEX
8
outline
10
305.0875
20
-24.1
0
VERTEX
8
outline
10
305.0875
20
-33.05
0
VERTEX
8
outline
10
305.0875
20
-43.15
0
VERTEX
8
outline
10
305.0875
20
-52.1
0
VERTEX
8
outline
10
305.0875
20
-53.3861326
0
VERTEX
8
outline
10
262.9986029
20
-64.6638186
0
VERTEX
8
outline
10
267.9291057
20
-83.0647056
0
VERTEX
8
outline
10
270.2455362
20
-91.7097417
0
VERTEX
8
outline
10
280.1065418
20
-128.5115157
0
VERTEX
8
outline
10
298.5074288
20
-123.5810129
0
VERTEX
8
outline
10
307.1524649
20
-121.2645824
0
VERTEX
8
outline
10
316.9083158
20
-118.6505101
0
VERTEX
8
outline
10
325.5533519
20
-116.3340796
0
VERTEX
8
outline
10
343.9542389
20
-111.4035768
0
VERTEX
8
outline
10
333.1683255
20
-71.15
0
VERTEX
8
outline
10
343.1875
20
-71.15
0
VERTEX
8
outline
10
352.1375
20
-71.15
0
VERTEX
8
outline
10
362.2375
20
-71.15
0
VERTEX
8
outline
10
371.1875
20
-71.15
0
VERTEX
8
outline
10
381.2875
20
-71.15
0
VERTEX
8
outline
10
390.2375
20
-71.15
0
VERTEX
8
outline
10
400.3375
20
-71.15
0
VERTEX
8
outline
10
409.2875
20
-71.15
0
VERTEX
8
outline
10
419.3875
20
-71.15
0
VERTEX
8
outline
10
428.3375
20
-71.15
0
VERTEX
8
outline
10
456.9125
20
-71.15
0
VERTEX
8
outline
10
456.9125
20
-52.1
0
VERTEX
8
outline
10
456.9125
20
-43.15
0
VERTEX
8
outline
10
456.9125
20
-33.05
0
VERTEX
8
outline
10
456.9125
20
-24.1
0
VERTEX
8
outline
10
456.9125
20
-14
0
VERTEX
8
outline
10
456.9125
20
-5.05
0
VERTEX
8
outline
10
456.9125
20
14
0
VERTEX
8
outline
10
428.3375
20
14
0
VERTEX
8
outline
10
419.3875
20
14
0
VERTEX
8
outline
10
409.2875
20
14
0
VERTEX
8
outline
10
400.3375
20
14
0
VERTEX
8
outline
10
390.2375
20
14
0
VERTEX
8
outline
10
381.2875
20
14
0
VERTEX
8
outline
10
371.1875
20
14
0
VERTEX
8
outline
10
362.2375
20
14
0
VERTEX
8
outline
10
352.1375
20
14
0
VERTEX
8
outline
10
343.1875
20
14
0
SEQEND
0
ENDSEC
0
EOF